<svg width="603" height="475" viewBox="0 0 603 475" fill="none" xmlns="http://www.w3.org/2000/svg">
<path d="M211 310.469V186.88C211 186.263 211.465 185.747 212.079 185.687C241.486 182.825 273.659 182.901 300.18 191.524C300.671 191.684 301 192.142 301 192.659V316.129C301 316.948 300.199 317.527 299.419 317.279C273.116 308.923 241.379 308.854 212.318 311.666C211.611 311.734 211 311.179 211 310.469Z" fill="#D9D9D9" stroke="black" stroke-width="6"/>
<path d="M223 299.672V179.084C223 178.468 223.476 177.95 224.089 177.891C253.217 175.094 271.093 178.133 300.329 192.663C300.736 192.865 301 193.285 301 193.739V314.056C301 314.948 300.051 315.524 299.251 315.13C270.729 301.098 252.957 298.145 224.329 300.868C223.622 300.935 223 300.382 223 299.672Z" fill="#D9D9D9" stroke="black" stroke-width="6"/>
<path d="M235 287.02V167.2C235 166.537 235.546 166 236.208 166.004C265.291 166.222 283.006 174.354 300.646 191.867C300.871 192.091 301 192.399 301 192.717V312.323C301 313.392 299.7 313.93 298.929 313.19C281.846 296.777 264.348 288.455 236.208 288.225C235.546 288.219 235 287.683 235 287.02Z" fill="#D9D9D9" stroke="black" stroke-width="6"/>
<path d="M391 310.469V186.88C391 186.263 390.535 185.747 389.921 185.687C360.514 182.825 328.341 182.901 301.82 191.524C301.329 191.684 301 192.142 301 192.659V316.129C301 316.948 301.801 317.527 302.581 317.279C328.884 308.923 360.621 308.854 389.682 311.666C390.389 311.734 391 311.179 391 310.469Z" fill="#D9D9D9" stroke="black" stroke-width="6"/>
<path d="M379 299.672V179.084C379 178.468 378.524 177.95 377.911 177.891C348.783 175.094 330.907 178.133 301.671 192.663C301.264 192.865 301 193.285 301 193.739V314.056C301 314.948 301.949 315.524 302.749 315.13C331.271 301.098 349.043 298.145 377.671 300.868C378.378 300.935 379 300.382 379 299.672Z" fill="#D9D9D9" stroke="black" stroke-width="6"/>
<path d="M367 287.02V167.2C367 166.537 366.454 166 365.792 166.004C336.709 166.222 318.994 174.354 301.354 191.867C301.129 192.091 301 192.399 301 192.717V312.323C301 313.392 302.3 313.93 303.071 313.19C320.154 296.777 337.652 288.455 365.792 288.225C366.454 288.219 367 287.683 367 287.02Z" fill="#D9D9D9" stroke="black" stroke-width="6"/>
<path d="M18.576 71V54.152L2.736 23.768H9.072L16.2 37.808C17.112 39.584 18 41.384 18.864 43.208C19.728 45.032 20.64 46.904 21.6 48.824H21.888C22.848 46.904 23.784 45.032 24.696 43.208C25.608 41.384 26.52 39.56 27.432 37.736L34.272 23.768H40.464L24.624 54.152V71H18.576ZM71.9719 71.864C68.8999 71.864 66.0439 71.144 63.4039 69.704C60.8119 68.264 58.6999 66.176 57.0679 63.44C55.4839 60.704 54.6919 57.416 54.6919 53.576C54.6919 49.64 55.4839 46.304 57.0679 43.568C58.6999 40.832 60.8119 38.744 63.4039 37.304C66.0439 35.864 68.8999 35.144 71.9719 35.144C75.0439 35.144 77.8759 35.864 80.4679 37.304C83.1079 38.744 85.2199 40.832 86.8039 43.568C88.4359 46.304 89.2519 49.64 89.2519 53.576C89.2519 57.416 88.4359 60.704 86.8039 63.44C85.2199 66.176 83.1079 68.264 80.4679 69.704C77.8759 71.144 75.0439 71.864 71.9719 71.864ZM71.9719 66.968C74.2279 66.968 76.1959 66.416 77.8759 65.312C79.5559 64.16 80.8519 62.576 81.7639 60.56C82.6759 58.544 83.1319 56.216 83.1319 53.576C83.1319 50.888 82.6759 48.536 81.7639 46.52C80.8519 44.456 79.5559 42.872 77.8759 41.768C76.1959 40.616 74.2279 40.04 71.9719 40.04C69.7159 40.04 67.7479 40.616 66.0679 41.768C64.4359 42.872 63.1399 44.456 62.1799 46.52C61.2679 48.536 60.8119 50.888 60.8119 53.576C60.8119 56.216 61.2679 58.544 62.1799 60.56C63.1399 62.576 64.4359 64.16 66.0679 65.312C67.7479 66.416 69.7159 66.968 71.9719 66.968ZM118.456 71.864C114.28 71.864 111.208 70.664 109.24 68.264C107.272 65.864 106.288 62.36 106.288 57.752V36.008H112.264V56.96C112.264 60.272 112.864 62.744 114.064 64.376C115.312 65.96 117.4 66.752 120.328 66.752C122.344 66.752 124.168 66.248 125.8 65.24C127.48 64.184 129.28 62.528 131.2 60.272V36.008H137.104V71H132.28L131.776 64.88H131.488C129.712 66.896 127.768 68.576 125.656 69.92C123.544 71.216 121.144 71.864 118.456 71.864ZM161.628 71V36.008H166.524L167.028 44.288H167.244C169.068 41.456 171.324 39.224 174.012 37.592C176.7 35.96 179.652 35.144 182.868 35.144C184.164 35.144 185.364 35.264 186.468 35.504C187.62 35.696 188.724 36.056 189.78 36.584L188.412 41.696C187.212 41.264 186.18 40.952 185.316 40.76C184.452 40.568 183.324 40.472 181.932 40.472C179.292 40.472 176.748 41.24 174.3 42.776C171.9 44.264 169.644 46.832 167.532 50.48V71H161.628ZM281.091 71.864C277.395 71.864 274.563 70.808 272.595 68.696C270.627 66.536 269.643 63.392 269.643 59.264V24.56H257.691V19.736H275.547V59.696C275.547 62.24 276.171 64.088 277.419 65.24C278.667 66.392 280.323 66.968 282.387 66.968C283.395 66.968 284.427 66.848 285.483 66.608C286.539 66.32 287.715 65.888 289.011 65.312L290.523 69.776C288.939 70.352 287.451 70.832 286.059 71.216C284.667 71.648 283.011 71.864 281.091 71.864ZM324.983 71V40.832H308.711V36.008H330.887V71H324.983ZM327.287 28.664C325.943 28.664 324.815 28.256 323.903 27.44C322.991 26.576 322.535 25.448 322.535 24.056C322.535 22.664 322.991 21.56 323.903 20.744C324.815 19.88 325.943 19.448 327.287 19.448C328.631 19.448 329.759 19.88 330.671 20.744C331.583 21.56 332.039 22.664 332.039 24.056C332.039 25.448 331.583 26.576 330.671 27.44C329.759 28.256 328.631 28.664 327.287 28.664ZM375.643 71.864C373.915 71.864 372.067 71.456 370.099 70.64C368.179 69.776 366.403 68.6 364.771 67.112H364.555L364.051 71H359.299V19.736H365.203V33.704L364.987 40.472H365.203C366.787 38.84 368.611 37.544 370.675 36.584C372.787 35.624 374.875 35.144 376.939 35.144C380.107 35.144 382.771 35.888 384.931 37.376C387.091 38.816 388.723 40.88 389.827 43.568C390.931 46.208 391.483 49.328 391.483 52.928C391.483 56.912 390.739 60.32 389.251 63.152C387.811 65.984 385.891 68.144 383.491 69.632C381.091 71.12 378.475 71.864 375.643 71.864ZM374.707 66.896C376.723 66.896 378.523 66.344 380.107 65.24C381.739 64.136 383.011 62.552 383.923 60.488C384.883 58.376 385.363 55.88 385.363 53C385.363 50.456 385.027 48.224 384.355 46.304C383.683 44.336 382.627 42.824 381.187 41.768C379.747 40.664 377.851 40.112 375.499 40.112C373.915 40.112 372.235 40.544 370.459 41.408C368.731 42.224 366.979 43.544 365.203 45.368V62.792C366.883 64.28 368.563 65.336 370.243 65.96C371.971 66.584 373.459 66.896 374.707 66.896ZM413.487 71V36.008H418.383L418.887 44.288H419.103C420.927 41.456 423.183 39.224 425.871 37.592C428.559 35.96 431.511 35.144 434.727 35.144C436.023 35.144 437.223 35.264 438.327 35.504C439.479 35.696 440.583 36.056 441.639 36.584L440.271 41.696C439.071 41.264 438.039 40.952 437.175 40.76C436.311 40.568 435.183 40.472 433.791 40.472C431.151 40.472 428.607 41.24 426.159 42.776C423.759 44.264 421.503 46.832 419.391 50.48V71H413.487ZM471.059 71.864C468.899 71.864 466.907 71.48 465.083 70.712C463.259 69.896 461.819 68.744 460.763 67.256C459.707 65.768 459.179 63.992 459.179 61.928C459.179 57.992 461.147 55.016 465.083 53C469.019 50.936 475.499 49.544 484.523 48.824C484.475 47.24 484.139 45.776 483.515 44.432C482.939 43.088 481.979 42.032 480.635 41.264C479.291 40.448 477.491 40.04 475.235 40.04C473.747 40.04 472.259 40.256 470.771 40.688C469.331 41.072 467.939 41.6 466.595 42.272C465.299 42.896 464.099 43.544 462.995 44.216L460.691 40.184C461.843 39.416 463.235 38.648 464.867 37.88C466.547 37.064 468.347 36.416 470.267 35.936C472.187 35.408 474.179 35.144 476.243 35.144C479.459 35.144 482.099 35.744 484.163 36.944C486.275 38.144 487.835 39.824 488.843 41.984C489.899 44.096 490.427 46.616 490.427 49.544V71H485.603L485.099 66.248H484.883C482.963 67.784 480.803 69.104 478.403 70.208C476.003 71.312 473.555 71.864 471.059 71.864ZM472.643 67.112C474.659 67.112 476.651 66.656 478.619 65.744C480.587 64.832 482.555 63.56 484.523 61.928V52.712C479.531 53.144 475.595 53.744 472.715 54.512C469.883 55.28 467.867 56.264 466.667 57.464C465.515 58.616 464.939 59.96 464.939 61.496C464.939 62.792 465.299 63.872 466.019 64.736C466.739 65.552 467.675 66.152 468.827 66.536C470.027 66.92 471.299 67.112 472.643 67.112ZM514.231 71V36.008H519.127L519.631 44.288H519.847C521.671 41.456 523.927 39.224 526.615 37.592C529.303 35.96 532.255 35.144 535.471 35.144C536.767 35.144 537.967 35.264 539.071 35.504C540.223 35.696 541.327 36.056 542.383 36.584L541.015 41.696C539.815 41.264 538.783 40.952 537.919 40.76C537.055 40.568 535.927 40.472 534.535 40.472C531.895 40.472 529.351 41.24 526.903 42.776C524.503 44.264 522.247 46.832 520.135 50.48V71H514.231ZM563.523 86.048C562.755 86.048 561.939 85.976 561.075 85.832C560.259 85.688 559.539 85.52 558.915 85.328L560.139 80.648C560.619 80.792 561.123 80.912 561.651 81.008C562.227 81.104 562.779 81.152 563.307 81.152C565.755 81.152 567.747 80.432 569.283 78.992C570.819 77.6 572.019 75.824 572.883 73.664L573.963 71.072L557.619 36.008H563.595L572.163 55.376C572.835 56.912 573.531 58.568 574.251 60.344C575.019 62.072 575.763 63.8 576.483 65.528H576.771C577.395 63.848 578.019 62.144 578.643 60.416C579.315 58.64 579.939 56.96 580.515 55.376L588.147 36.008H593.763L578.355 73.88C577.491 76.184 576.411 78.248 575.115 80.072C573.819 81.944 572.211 83.408 570.291 84.464C568.419 85.52 566.163 86.048 563.523 86.048Z" fill="white"/>
<path d="M18.576 71H16.776V72.8H18.576V71ZM18.576 54.152H20.376V53.711L20.1721 53.3199L18.576 54.152ZM2.736 23.768V21.968H-0.232308L1.13988 24.6001L2.736 23.768ZM9.072 23.768L10.677 22.9532L10.1768 21.968H9.072V23.768ZM16.2 37.808L14.595 38.6229L14.5988 38.6302L16.2 37.808ZM18.864 43.208L20.4907 42.4374L20.4907 42.4374L18.864 43.208ZM21.6 48.824L19.99 49.629L20.4875 50.624H21.6V48.824ZM21.888 48.824V50.624H23.0005L23.498 49.629L21.888 48.824ZM24.696 43.208L26.306 44.013L26.306 44.013L24.696 43.208ZM27.432 37.736L29.042 38.541L29.0453 38.5343L29.0486 38.5276L27.432 37.736ZM34.272 23.768V21.968H33.1492L32.6554 22.9764L34.272 23.768ZM40.464 23.768L42.0601 24.6001L43.4323 21.968H40.464V23.768ZM24.624 54.152L23.0279 53.3199L22.824 53.711V54.152H24.624ZM24.624 71V72.8H26.424V71H24.624ZM20.376 71V54.152H16.776V71H20.376ZM20.1721 53.3199L4.33212 22.9359L1.13988 24.6001L16.9799 54.9841L20.1721 53.3199ZM2.736 25.568H9.072V21.968H2.736V25.568ZM7.467 24.5828L14.595 38.6228L17.805 36.9932L10.677 22.9532L7.467 24.5828ZM14.5988 38.6302C15.5019 40.389 16.3814 42.1717 17.2373 43.9786L20.4907 42.4374C19.6186 40.5963 18.7221 38.779 17.8012 36.9857L14.5988 38.6302ZM17.2373 43.9786C18.1071 45.8148 19.0247 47.6983 19.99 49.629L23.21 48.019C22.2553 46.1097 21.3489 44.2492 20.4907 42.4374L17.2373 43.9786ZM21.6 50.624H21.888V47.024H21.6V50.624ZM23.498 49.629C24.458 47.709 25.394 45.837 26.306 44.013L23.086 42.403C22.174 44.227 21.238 46.099 20.278 48.019L23.498 49.629ZM26.306 44.013C27.218 42.189 28.13 40.365 29.042 38.541L25.822 36.931C24.91 38.755 23.998 40.579 23.086 42.403L26.306 44.013ZM29.0486 38.5276L35.8886 24.5596L32.6554 22.9764L25.8154 36.9444L29.0486 38.5276ZM34.272 25.568H40.464V21.968H34.272V25.568ZM38.8679 22.9359L23.0279 53.3199L26.2201 54.9841L42.0601 24.6001L38.8679 22.9359ZM22.824 54.152V71H26.424V54.152H22.824ZM24.624 69.2H18.576V72.8H24.624V69.2ZM63.4039 69.704L62.5297 71.2775L62.5419 71.2842L63.4039 69.704ZM57.0679 63.44L55.5101 64.3419L55.516 64.352L55.522 64.3621L57.0679 63.44ZM57.0679 43.568L55.522 42.6459L55.516 42.656L55.5101 42.6661L57.0679 43.568ZM63.4039 37.304L62.5419 35.7237L62.5297 35.7305L63.4039 37.304ZM80.4679 37.304L79.5937 38.8775L79.6059 38.8842L80.4679 37.304ZM86.8039 43.568L85.2461 44.4699L85.252 44.48L85.258 44.4901L86.8039 43.568ZM86.8039 63.44L85.258 62.5179L85.252 62.528L85.2461 62.5381L86.8039 63.44ZM80.4679 69.704L79.6059 68.1237L79.5937 68.1305L80.4679 69.704ZM77.8759 65.312L78.8644 66.8163L78.8792 66.8065L78.8938 66.7965L77.8759 65.312ZM81.7639 60.56L80.1239 59.8181L80.1239 59.8181L81.7639 60.56ZM81.7639 46.52L80.1174 47.2475L80.1206 47.2547L80.1239 47.2619L81.7639 46.52ZM77.8759 41.768L76.8579 43.2525L76.8725 43.2625L76.8874 43.2723L77.8759 41.768ZM66.0679 41.768L67.0765 43.2589L67.0858 43.2525L66.0679 41.768ZM62.1799 46.52L60.5478 45.7609L60.5438 45.7695L60.5399 45.7781L62.1799 46.52ZM62.1799 60.56L60.5399 61.3019L60.5471 61.318L60.5547 61.3339L62.1799 60.56ZM66.0679 65.312L65.0298 66.7825L65.0543 66.7998L65.0794 66.8163L66.0679 65.312ZM71.9719 70.064C69.1943 70.064 66.6355 69.4164 64.2658 68.1238L62.5419 71.2842C65.4522 72.8716 68.6055 73.664 71.9719 73.664V70.064ZM64.278 68.1305C61.984 66.8561 60.0957 65.0023 58.6138 62.5179L55.522 64.3621C57.3041 67.3497 59.6397 69.6719 62.5297 71.2775L64.278 68.1305ZM58.6256 62.5381C57.2312 60.1295 56.4919 57.1671 56.4919 53.576H52.8919C52.8919 57.6649 53.7366 61.2785 55.5101 64.3419L58.6256 62.5381ZM56.4919 53.576C56.4919 49.8799 57.2348 46.8722 58.6256 44.4699L55.5101 42.6661C53.7329 45.7358 52.8919 49.4001 52.8919 53.576H56.4919ZM58.6138 44.4901C60.0957 42.0057 61.984 40.1519 64.278 38.8775L62.5297 35.7305C59.6397 37.3361 57.3041 39.6583 55.522 42.6459L58.6138 44.4901ZM64.2658 38.8842C66.6355 37.5916 69.1943 36.944 71.9719 36.944V33.344C68.6055 33.344 65.4522 34.1364 62.5419 35.7238L64.2658 38.8842ZM71.9719 36.944C74.7494 36.944 77.279 37.5915 79.5937 38.8775L81.342 35.7305C78.4728 34.1365 75.3383 33.344 71.9719 33.344V36.944ZM79.6059 38.8842C81.941 40.1579 83.8186 42.0042 85.2461 44.4699L88.3616 42.6661C86.6211 39.6598 84.2747 37.3301 81.3298 35.7238L79.6059 38.8842ZM85.258 44.4901C86.6886 46.8885 87.4519 49.8886 87.4519 53.576H91.0519C91.0519 49.3914 90.1831 45.7195 88.3498 42.6459L85.258 44.4901ZM87.4519 53.576C87.4519 57.1582 86.6925 60.113 85.258 62.5179L88.3498 64.3621C90.1793 61.295 91.0519 57.6738 91.0519 53.576H87.4519ZM85.2461 62.5381C83.8186 65.0038 81.941 66.8501 79.6059 68.1238L81.3298 71.2842C84.2747 69.6779 86.6211 67.3482 88.3616 64.3419L85.2461 62.5381ZM79.5937 68.1305C77.279 69.4165 74.7494 70.064 71.9719 70.064V73.664C75.3383 73.664 78.4728 72.8715 81.342 71.2775L79.5937 68.1305ZM71.9719 68.768C74.5348 68.768 76.8558 68.1362 78.8644 66.8163L76.8874 63.8077C75.536 64.6958 73.921 65.168 71.9719 65.168V68.768ZM78.8938 66.7965C80.8684 65.4425 82.3684 63.5909 83.4039 61.3019L80.1239 59.8181C79.3354 61.5611 78.2434 62.8775 76.8579 63.8275L78.8938 66.7965ZM83.4039 61.3019C84.4397 59.0122 84.9319 56.4232 84.9319 53.576H81.3319C81.3319 56.0088 80.9121 58.0758 80.1239 59.8181L83.4039 61.3019ZM84.9319 53.576C84.9319 50.686 84.4415 48.0717 83.4039 45.7781L80.1239 47.2619C80.9103 49.0003 81.3319 51.09 81.3319 53.576H84.9319ZM83.4103 45.7925C82.376 43.4517 80.8684 41.5807 78.8644 40.2637L76.8874 43.2723C78.2433 44.1633 79.3277 45.4603 80.1174 47.2475L83.4103 45.7925ZM78.8938 40.2835C76.8822 38.9041 74.5505 38.24 71.9719 38.24V41.84C73.9052 41.84 75.5095 42.3279 76.8579 43.2525L78.8938 40.2835ZM71.9719 38.24C69.3932 38.24 67.0615 38.9041 65.0499 40.2835L67.0858 43.2525C68.4342 42.3279 70.0385 41.84 71.9719 41.84V38.24ZM65.0593 40.2771C63.1173 41.5908 61.6237 43.4476 60.5478 45.7609L63.812 47.2791C64.656 45.4644 65.7545 44.1532 67.0764 43.2589L65.0593 40.2771ZM60.5399 45.7781C59.5023 48.0717 59.0119 50.686 59.0119 53.576H62.6119C62.6119 51.09 63.0335 49.0003 63.8199 47.2619L60.5399 45.7781ZM59.0119 53.576C59.0119 56.4232 59.5041 59.0122 60.5399 61.3019L63.8199 59.8181C63.0317 58.0758 62.6119 56.0088 62.6119 53.576H59.0119ZM60.5547 61.3339C61.6315 63.5951 63.117 65.4323 65.0298 66.7825L67.1059 63.8415C65.7548 62.8877 64.6482 61.5569 63.805 59.7861L60.5547 61.3339ZM65.0794 66.8163C67.088 68.1362 69.409 68.768 71.9719 68.768V65.168C70.0228 65.168 68.4078 64.6958 67.0564 63.8077L65.0794 66.8163ZM109.24 68.264L107.848 69.4053L109.24 68.264ZM106.288 36.008V34.208H104.488V36.008H106.288ZM112.264 36.008H114.064V34.208H112.264V36.008ZM114.064 64.376L112.614 65.4423L112.631 65.4664L112.65 65.49L114.064 64.376ZM125.8 65.24L126.746 66.7714L126.752 66.7677L126.758 66.7639L125.8 65.24ZM131.2 60.272L132.571 61.4386L133 60.9343V60.272H131.2ZM131.2 36.008V34.208H129.4V36.008H131.2ZM137.104 36.008H138.904V34.208H137.104V36.008ZM137.104 71V72.8H138.904V71H137.104ZM132.28 71L130.486 71.1477L130.622 72.8H132.28V71ZM131.776 64.88L133.57 64.7323L133.434 63.08H131.776V64.88ZM131.488 64.88V63.08H130.675L130.137 63.6901L131.488 64.88ZM125.656 69.92L126.597 71.4542L126.61 71.4465L126.622 71.4386L125.656 69.92ZM118.456 70.064C114.621 70.064 112.149 68.9735 110.632 67.1227L107.848 69.4053C110.266 72.3545 113.939 73.664 118.456 73.664V70.064ZM110.632 67.1227C109.029 65.1683 108.088 62.1384 108.088 57.752H104.488C104.488 62.5816 105.514 66.5597 107.848 69.4053L110.632 67.1227ZM108.088 57.752V36.008H104.488V57.752H108.088ZM106.288 37.808H112.264V34.208H106.288V37.808ZM110.464 36.008V56.96H114.064V36.008H110.464ZM110.464 56.96C110.464 60.4326 111.083 63.3601 112.614 65.4423L115.514 63.3097C114.645 62.1279 114.064 60.1114 114.064 56.96H110.464ZM112.65 65.49C114.373 67.6767 117.108 68.552 120.328 68.552V64.952C117.692 64.952 116.251 64.2433 115.478 63.262L112.65 65.49ZM120.328 68.552C122.66 68.552 124.815 67.9641 126.746 66.7714L124.854 63.7086C123.521 64.5319 122.027 64.952 120.328 64.952V68.552ZM126.758 66.7639C128.649 65.5752 130.584 63.7724 132.571 61.4386L129.829 59.1054C127.975 61.2836 126.311 62.7928 124.842 63.7161L126.758 66.7639ZM133 60.272V36.008H129.4V60.272H133ZM131.2 37.808H137.104V34.208H131.2V37.808ZM135.304 36.008V71H138.904V36.008H135.304ZM137.104 69.2H132.28V72.8H137.104V69.2ZM134.074 70.8523L133.57 64.7323L129.982 65.0277L130.486 71.1477L134.074 70.8523ZM131.776 63.08H131.488V66.68H131.776V63.08ZM130.137 63.6901C128.465 65.5883 126.648 67.1548 124.689 68.4014L126.622 71.4386C128.887 69.9972 130.959 68.2037 132.838 66.0699L130.137 63.6901ZM124.714 68.3858C122.909 69.4933 120.841 70.064 118.456 70.064V73.664C121.447 73.664 124.178 72.9387 126.597 71.4542L124.714 68.3858ZM161.628 71H159.828V72.8H161.628V71ZM161.628 36.008V34.208H159.828V36.008H161.628ZM166.524 36.008L168.32 35.8986L168.217 34.208H166.524V36.008ZM167.028 44.288L165.231 44.3974L165.334 46.088H167.028V44.288ZM167.244 44.288V46.088H168.225L168.757 45.2627L167.244 44.288ZM186.468 35.504L186.085 37.2629L186.128 37.2723L186.172 37.2795L186.468 35.504ZM189.78 36.584L191.518 37.0493L191.898 35.6308L190.585 34.974L189.78 36.584ZM188.412 41.696L187.802 43.3896L189.644 44.0528L190.15 42.1613L188.412 41.696ZM174.3 42.776L175.248 44.3058L175.256 44.3007L174.3 42.776ZM167.532 50.48L165.974 49.5781L165.732 49.9965V50.48H167.532ZM167.532 71V72.8H169.332V71H167.532ZM163.428 71V36.008H159.828V71H163.428ZM161.628 37.808H166.524V34.208H161.628V37.808ZM164.727 36.1174L165.231 44.3974L168.824 44.1786L168.32 35.8986L164.727 36.1174ZM167.028 46.088H167.244V42.488H167.028V46.088ZM168.757 45.2627C170.444 42.6434 172.507 40.611 174.946 39.1306L173.077 36.0534C170.14 37.837 167.691 40.2686 165.73 43.3133L168.757 45.2627ZM174.946 39.1306C177.346 37.6736 179.973 36.944 182.868 36.944V33.344C179.33 33.344 176.054 34.2464 173.077 36.0534L174.946 39.1306ZM182.868 36.944C184.053 36.944 185.124 37.0539 186.085 37.2629L186.85 33.7451C185.604 33.4741 184.274 33.344 182.868 33.344V36.944ZM186.172 37.2795C187.145 37.4417 188.077 37.7453 188.975 38.194L190.585 34.974C189.37 34.3667 188.094 33.9503 186.764 33.7285L186.172 37.2795ZM188.041 36.1187L186.673 41.2307L190.15 42.1613L191.518 37.0493L188.041 36.1187ZM189.021 40.0024C187.778 39.5548 186.669 39.2168 185.706 39.0029L184.925 42.5171C185.69 42.6872 186.645 42.9732 187.802 43.3896L189.021 40.0024ZM185.706 39.0029C184.663 38.771 183.389 38.672 181.932 38.672V42.272C183.258 42.272 184.241 42.365 184.925 42.5171L185.706 39.0029ZM181.932 38.672C178.921 38.672 176.049 39.5531 173.343 41.2513L175.256 44.3007C177.446 42.9269 179.662 42.272 181.932 42.272V38.672ZM173.351 41.2462C170.606 42.9483 168.167 45.7903 165.974 49.5781L169.089 51.3819C171.12 47.8737 173.194 45.5797 175.248 44.3058L173.351 41.2462ZM165.732 50.48V71H169.332V50.48H165.732ZM167.532 69.2H161.628V72.8H167.532V69.2ZM272.595 68.696L271.265 69.9083L271.272 69.9157L271.278 69.9231L272.595 68.696ZM269.643 24.56H271.443V22.76H269.643V24.56ZM257.691 24.56H255.891V26.36H257.691V24.56ZM257.691 19.736V17.936H255.891V19.736H257.691ZM275.547 19.736H277.347V17.936H275.547V19.736ZM277.419 65.24L278.64 63.9174L278.64 63.9174L277.419 65.24ZM285.483 66.608L285.882 68.3632L285.92 68.3547L285.957 68.3446L285.483 66.608ZM289.011 65.312L290.716 64.7345L290.083 62.8658L288.28 63.6671L289.011 65.312ZM290.523 69.776L291.139 71.4676L292.793 70.866L292.228 69.1985L290.523 69.776ZM286.059 71.216L285.581 69.4808L285.553 69.4884L285.526 69.4969L286.059 71.216ZM281.091 70.064C277.746 70.064 275.45 69.1195 273.912 67.4689L271.278 69.9231C273.676 72.4965 277.044 73.664 281.091 73.664V70.064ZM273.926 67.4837C272.365 65.7702 271.443 63.1282 271.443 59.264H267.843C267.843 63.6558 268.89 67.3018 271.265 69.9083L273.926 67.4837ZM271.443 59.264V24.56H267.843V59.264H271.443ZM269.643 22.76H257.691V26.36H269.643V22.76ZM259.491 24.56V19.736H255.891V24.56H259.491ZM257.691 21.536H275.547V17.936H257.691V21.536ZM273.747 19.736V59.696H277.347V19.736H273.747ZM273.747 59.696C273.747 62.4919 274.431 64.9308 276.198 66.5626L278.64 63.9174C277.912 63.2452 277.347 61.9881 277.347 59.696H273.747ZM276.198 66.5626C277.847 68.0847 279.973 68.768 282.387 68.768V65.168C280.673 65.168 279.487 64.6993 278.64 63.9174L276.198 66.5626ZM282.387 68.768C283.539 68.768 284.705 68.6308 285.882 68.3632L285.084 64.8528C284.15 65.0652 283.252 65.168 282.387 65.168V68.768ZM285.957 68.3446C287.122 68.0268 288.386 67.5597 289.742 66.9569L288.28 63.6671C287.045 64.2163 285.956 64.6132 285.01 64.8714L285.957 68.3446ZM287.307 65.8895L288.819 70.3535L292.228 69.1985L290.716 64.7345L287.307 65.8895ZM289.908 68.0844C288.362 68.6467 286.92 69.1114 285.581 69.4808L286.538 72.9512C287.983 72.5526 289.517 72.0573 291.139 71.4676L289.908 68.0844ZM285.526 69.4969C284.351 69.8614 282.884 70.064 281.091 70.064V73.664C283.138 73.664 284.983 73.4346 286.593 72.9351L285.526 69.4969ZM324.983 71H323.183V72.8H324.983V71ZM324.983 40.832H326.783V39.032H324.983V40.832ZM308.711 40.832H306.911V42.632H308.711V40.832ZM308.711 36.008V34.208H306.911V36.008H308.711ZM330.887 36.008H332.687V34.208H330.887V36.008ZM330.887 71V72.8H332.687V71H330.887ZM323.903 27.44L322.665 28.7467L322.684 28.7643L322.703 28.7814L323.903 27.44ZM323.903 20.744L325.103 22.0854L325.123 22.0683L325.141 22.0507L323.903 20.744ZM330.671 20.744L329.433 22.0507L329.452 22.0683L329.471 22.0854L330.671 20.744ZM330.671 27.44L331.871 28.7814L331.891 28.7643L331.909 28.7467L330.671 27.44ZM326.783 71V40.832H323.183V71H326.783ZM324.983 39.032H308.711V42.632H324.983V39.032ZM310.511 40.832V36.008H306.911V40.832H310.511ZM308.711 37.808H330.887V34.208H308.711V37.808ZM329.087 36.008V71H332.687V36.008H329.087ZM330.887 69.2H324.983V72.8H330.887V69.2ZM327.287 26.864C326.339 26.864 325.652 26.5893 325.103 26.0986L322.703 28.7814C323.979 29.9227 325.547 30.464 327.287 30.464V26.864ZM325.141 26.1333C324.629 25.6478 324.335 25.0128 324.335 24.056H320.735C320.735 25.8832 321.354 27.5042 322.665 28.7467L325.141 26.1333ZM324.335 24.056C324.335 23.0981 324.628 22.5112 325.103 22.0854L322.703 19.4026C321.355 20.6088 320.735 22.2299 320.735 24.056H324.335ZM325.141 22.0507C325.694 21.5269 326.369 21.248 327.287 21.248V17.648C325.518 17.648 323.936 18.2331 322.665 19.4373L325.141 22.0507ZM327.287 21.248C328.206 21.248 328.88 21.5269 329.433 22.0507L331.909 19.4373C330.638 18.2331 329.057 17.648 327.287 17.648V21.248ZM329.471 22.0854C329.947 22.5112 330.239 23.0981 330.239 24.056H333.839C333.839 22.2299 333.22 20.6088 331.871 19.4026L329.471 22.0854ZM330.239 24.056C330.239 25.0128 329.946 25.6478 329.433 26.1333L331.909 28.7467C333.221 27.5042 333.839 25.8832 333.839 24.056H330.239ZM329.471 26.0986C328.923 26.5893 328.235 26.864 327.287 26.864V30.464C329.027 30.464 330.596 29.9227 331.871 28.7814L329.471 26.0986ZM370.099 70.64L369.36 72.2815L369.385 72.2925L369.41 72.3027L370.099 70.64ZM364.771 67.112L365.984 65.7819L365.469 65.312H364.771V67.112ZM364.555 67.112V65.312H362.973L362.77 66.8806L364.555 67.112ZM364.051 71V72.8H365.633L365.836 71.2314L364.051 71ZM359.299 71H357.499V72.8H359.299V71ZM359.299 19.736V17.936H357.499V19.736H359.299ZM365.203 19.736H367.003V17.936H365.203V19.736ZM365.203 33.704L367.002 33.7614L367.003 33.7327V33.704H365.203ZM364.987 40.472L363.188 40.4146L363.129 42.272H364.987V40.472ZM365.203 40.472V42.272H365.964L366.495 41.7257L365.203 40.472ZM370.675 36.584L369.93 34.9453L369.923 34.9486L369.916 34.9519L370.675 36.584ZM384.931 37.376L383.91 38.8583L383.921 38.8661L383.933 38.8737L384.931 37.376ZM389.827 43.568L388.162 44.2519L388.166 44.2625L389.827 43.568ZM389.251 63.152L387.658 62.3148L387.652 62.3254L387.647 62.3362L389.251 63.152ZM383.491 69.632L382.543 68.1022L382.543 68.1022L383.491 69.632ZM380.107 65.24L379.099 63.7491L379.088 63.7561L379.078 63.7633L380.107 65.24ZM383.923 60.488L382.284 59.7432L382.281 59.7518L382.277 59.7605L383.923 60.488ZM384.355 46.304L382.652 46.8857L382.656 46.8986L384.355 46.304ZM381.187 41.768L380.092 43.1965L380.107 43.2082L380.123 43.2195L381.187 41.768ZM370.459 41.408L371.228 43.0356L371.237 43.0312L371.247 43.0266L370.459 41.408ZM365.203 45.368L363.913 44.1123L363.403 44.6364V45.368H365.203ZM365.203 62.792H363.403V63.6022L364.01 64.1395L365.203 62.792ZM370.243 65.96L369.616 67.6474L369.624 67.6502L369.632 67.653L370.243 65.96ZM375.643 70.064C374.2 70.064 372.587 69.7231 370.789 68.9773L369.41 72.3027C371.547 73.1889 373.63 73.664 375.643 73.664V70.064ZM370.838 68.9985C369.1 68.2164 367.482 67.148 365.984 65.7819L363.558 68.4421C365.324 70.052 367.259 71.3356 369.36 72.2815L370.838 68.9985ZM364.771 65.312H364.555V68.912H364.771V65.312ZM362.77 66.8806L362.266 70.7686L365.836 71.2314L366.34 67.3434L362.77 66.8806ZM364.051 69.2H359.299V72.8H364.051V69.2ZM361.099 71V19.736H357.499V71H361.099ZM359.299 21.536H365.203V17.936H359.299V21.536ZM363.403 19.736V33.704H367.003V19.736H363.403ZM363.404 33.6466L363.188 40.4146L366.786 40.5294L367.002 33.7614L363.404 33.6466ZM364.987 42.272H365.203V38.672H364.987V42.272ZM366.495 41.7257C367.926 40.2514 369.569 39.0836 371.434 38.2161L369.916 34.9519C367.653 36.0044 365.649 37.4286 363.911 39.2183L366.495 41.7257ZM371.42 38.2227C373.327 37.3558 375.162 36.944 376.939 36.944V33.344C374.588 33.344 372.247 33.8922 369.93 34.9453L371.42 38.2227ZM376.939 36.944C379.819 36.944 382.108 37.617 383.91 38.8583L385.952 35.8937C383.434 34.159 380.395 33.344 376.939 33.344V36.944ZM383.933 38.8737C385.759 40.0916 387.177 41.8544 388.162 44.2519L391.492 42.8841C390.269 39.9056 388.423 37.5404 385.93 35.8783L383.933 38.8737ZM388.166 44.2625C389.158 46.6337 389.683 49.5071 389.683 52.928H393.283C393.283 49.1489 392.704 45.7823 391.488 42.8735L388.166 44.2625ZM389.683 52.928C389.683 56.6906 388.981 59.7967 387.658 62.3148L390.845 63.9892C392.498 60.8433 393.283 57.1334 393.283 52.928H389.683ZM387.647 62.3362C386.337 64.9123 384.629 66.8087 382.543 68.1022L384.44 71.1618C387.153 69.4793 389.286 67.0557 390.856 63.9678L387.647 62.3362ZM382.543 68.1022C380.428 69.413 378.141 70.064 375.643 70.064V73.664C378.809 73.664 381.754 72.827 384.44 71.1618L382.543 68.1022ZM374.707 68.696C377.074 68.696 379.237 68.0408 381.136 66.7167L379.078 63.7633C377.81 64.6472 376.372 65.096 374.707 65.096V68.696ZM381.116 66.7309C383.067 65.4111 384.541 63.5429 385.57 61.2155L382.277 59.7605C381.481 61.5611 380.412 62.8609 379.099 63.7491L381.116 66.7309ZM385.562 61.2328C386.651 58.8376 387.163 56.0766 387.163 53H383.563C383.563 55.6834 383.116 57.9144 382.284 59.7432L385.562 61.2328ZM387.163 53C387.163 50.3021 386.807 47.8615 386.054 45.7094L382.656 46.8986C383.247 48.5865 383.563 50.6099 383.563 53H387.163ZM386.059 45.7223C385.288 43.4649 384.035 41.6244 382.252 40.3165L380.123 43.2195C381.219 44.0236 382.079 45.2071 382.652 46.8857L386.059 45.7223ZM382.282 40.3395C380.446 38.9315 378.129 38.312 375.499 38.312V41.912C377.573 41.912 379.048 42.3965 380.092 43.1965L382.282 40.3395ZM375.499 38.312C373.583 38.312 371.634 38.8348 369.672 39.7894L371.247 43.0266C372.836 42.2532 374.247 41.912 375.499 41.912V38.312ZM369.691 39.7804C367.715 40.7131 365.793 42.1823 363.913 44.1123L366.493 46.6237C368.166 44.9057 369.747 43.7349 371.228 43.0356L369.691 39.7804ZM363.403 45.368V62.792H367.003V45.368H363.403ZM364.01 64.1395C365.816 65.739 367.683 66.9292 369.616 67.6474L370.87 64.2726C369.443 63.7428 367.951 62.821 366.397 61.4445L364.01 64.1395ZM369.632 67.653C371.472 68.3175 373.177 68.696 374.707 68.696V65.096C373.741 65.096 372.47 64.8505 370.854 64.267L369.632 67.653ZM413.487 71H411.687V72.8H413.487V71ZM413.487 36.008V34.208H411.687V36.008H413.487ZM418.383 36.008L420.18 35.8986L420.077 34.208H418.383V36.008ZM418.887 44.288L417.09 44.3974L417.193 46.088H418.887V44.288ZM419.103 44.288V46.088H420.085L420.616 45.2627L419.103 44.288ZM438.327 35.504L437.945 37.2629L437.988 37.2723L438.031 37.2795L438.327 35.504ZM441.639 36.584L443.378 37.0493L443.757 35.6308L442.444 34.974L441.639 36.584ZM440.271 41.696L439.661 43.3896L441.504 44.0528L442.01 42.1613L440.271 41.696ZM426.159 42.776L427.108 44.3058L427.116 44.3007L426.159 42.776ZM419.391 50.48L417.833 49.5781L417.591 49.9965V50.48H419.391ZM419.391 71V72.8H421.191V71H419.391ZM415.287 71V36.008H411.687V71H415.287ZM413.487 37.808H418.383V34.208H413.487V37.808ZM416.586 36.1174L417.09 44.3974L420.684 44.1786L420.18 35.8986L416.586 36.1174ZM418.887 46.088H419.103V42.488H418.887V46.088ZM420.616 45.2627C422.303 42.6434 424.367 40.611 426.805 39.1306L424.937 36.0534C421.999 37.837 419.551 40.2686 417.59 43.3133L420.616 45.2627ZM426.805 39.1306C429.205 37.6736 431.833 36.944 434.727 36.944V33.344C431.189 33.344 427.913 34.2464 424.937 36.0534L426.805 39.1306ZM434.727 36.944C435.913 36.944 436.983 37.0539 437.945 37.2629L438.709 33.7451C437.463 33.4741 436.133 33.344 434.727 33.344V36.944ZM438.031 37.2795C439.004 37.4417 439.937 37.7453 440.834 38.194L442.444 34.974C441.229 34.3667 439.954 33.9503 438.623 33.7285L438.031 37.2795ZM439.9 36.1187L438.532 41.2307L442.01 42.1613L443.378 37.0493L439.9 36.1187ZM440.881 40.0024C439.637 39.5548 438.528 39.2168 437.565 39.0029L436.785 42.5171C437.55 42.6872 438.505 42.9732 439.661 43.3896L440.881 40.0024ZM437.565 39.0029C436.522 38.771 435.249 38.672 433.791 38.672V42.272C435.117 42.272 436.1 42.365 436.785 42.5171L437.565 39.0029ZM433.791 38.672C430.781 38.672 427.909 39.5531 425.202 41.2513L427.116 44.3007C429.305 42.9269 431.521 42.272 433.791 42.272V38.672ZM425.211 41.2462C422.465 42.9483 420.026 45.7903 417.833 49.5781L420.949 51.3819C422.98 47.8737 425.053 45.5797 427.107 44.3058L425.211 41.2462ZM417.591 50.48V71H421.191V50.48H417.591ZM419.391 69.2H413.487V72.8H419.391V69.2ZM465.083 70.712L464.348 72.3551L464.366 72.3632L464.384 72.3709L465.083 70.712ZM460.763 67.256L462.231 66.2143L462.231 66.2143L460.763 67.256ZM465.083 53L465.903 54.6021L465.911 54.5981L465.919 54.5941L465.083 53ZM484.523 48.824L484.666 50.6183L486.374 50.482L486.322 48.7695L484.523 48.824ZM483.515 44.432L481.86 45.1411L481.871 45.1657L481.882 45.19L483.515 44.432ZM480.635 41.264L479.701 42.8026L479.721 42.815L479.742 42.8268L480.635 41.264ZM470.771 40.688L471.235 42.4272L471.254 42.4221L471.273 42.4166L470.771 40.688ZM466.595 42.272L467.376 43.8938L467.388 43.888L467.4 43.882L466.595 42.272ZM462.995 44.216L461.432 45.109L462.35 46.7157L463.931 45.7536L462.995 44.216ZM460.691 40.184L459.692 38.6863L458.294 39.6183L459.128 41.077L460.691 40.184ZM464.867 37.88L465.633 39.5087L465.643 39.504L465.653 39.4991L464.867 37.88ZM470.267 35.936L470.703 37.6823L470.724 37.6771L470.744 37.6716L470.267 35.936ZM484.163 36.944L483.258 38.5001L483.266 38.5046L483.274 38.509L484.163 36.944ZM488.843 41.984L487.212 42.7452L487.222 42.7672L487.233 42.789L488.843 41.984ZM490.427 71V72.8H492.227V71H490.427ZM485.603 71L483.813 71.1898L483.984 72.8H485.603V71ZM485.099 66.248L486.889 66.0582L486.718 64.448H485.099V66.248ZM484.883 66.248V64.448H484.251L483.758 64.8424L484.883 66.248ZM478.619 65.744L477.862 64.1108L477.862 64.1108L478.619 65.744ZM484.523 61.928L485.672 63.3136L486.323 62.7737V61.928H484.523ZM484.523 52.712H486.323V50.7495L484.368 50.9187L484.523 52.712ZM472.715 54.512L472.251 52.7728L472.244 52.7747L472.715 54.512ZM466.667 57.464L465.394 56.1912L465.394 56.1912L466.667 57.464ZM466.019 64.736L464.636 65.8883L464.652 65.9079L464.669 65.9269L466.019 64.736ZM468.827 66.536L468.258 68.2436L468.268 68.2471L468.278 68.2504L468.827 66.536ZM471.059 70.064C469.117 70.064 467.365 69.7198 465.781 69.0531L464.384 72.3709C466.449 73.2402 468.681 73.664 471.059 73.664V70.064ZM465.818 69.0689C464.259 68.3714 463.083 67.4154 462.231 66.2143L459.295 68.2977C460.555 70.0726 462.259 71.4206 464.348 72.3551L465.818 69.0689ZM462.231 66.2143C461.419 65.0697 460.979 63.6697 460.979 61.928H457.379C457.379 64.3143 457.995 66.4663 459.295 68.2977L462.231 66.2143ZM460.979 61.928C460.979 60.2752 461.387 58.9003 462.156 57.7369C462.933 56.562 464.146 55.5024 465.903 54.6021L464.262 51.3979C462.084 52.5136 460.345 53.95 459.153 55.7511C457.955 57.5637 457.379 59.6448 457.379 61.928H460.979ZM465.919 54.5941C469.514 52.7086 475.685 51.3349 484.666 50.6183L484.38 47.0297C475.313 47.7531 468.523 49.1634 464.247 51.4059L465.919 54.5941ZM486.322 48.7695C486.267 46.9593 485.881 45.2538 485.147 43.674L481.882 45.19C482.397 46.2981 482.683 47.5207 482.724 48.8785L486.322 48.7695ZM485.169 43.7229C484.43 41.9972 483.191 40.6512 481.528 39.7012L479.742 42.8268C480.767 43.4128 481.448 44.1788 481.86 45.1411L485.169 43.7229ZM481.569 39.7254C479.847 38.6796 477.685 38.24 475.235 38.24V41.84C477.297 41.84 478.735 42.2164 479.701 42.8026L481.569 39.7254ZM475.235 38.24C473.57 38.24 471.913 38.482 470.269 38.9594L471.273 42.4166C472.604 42.03 473.924 41.84 475.235 41.84V38.24ZM470.307 38.9488C468.748 39.3645 467.242 39.936 465.79 40.662L467.4 43.882C468.636 43.264 469.913 42.7795 471.235 42.4272L470.307 38.9488ZM465.814 40.6502C464.471 41.2969 463.218 41.9727 462.059 42.6784L463.931 45.7536C464.979 45.1153 466.127 44.4951 467.376 43.8938L465.814 40.6502ZM464.558 43.3229L462.254 39.2909L459.128 41.077L461.432 45.109L464.558 43.3229ZM461.689 41.6817C462.749 40.9752 464.059 40.2495 465.633 39.5087L464.1 36.2513C462.411 37.0465 460.937 37.8568 459.692 38.6863L461.689 41.6817ZM465.653 39.4991C467.215 38.7406 468.897 38.1339 470.703 37.6823L469.83 34.1897C467.797 34.6981 465.879 35.3874 464.08 36.2609L465.653 39.4991ZM470.744 37.6716C472.503 37.1879 474.334 36.944 476.243 36.944V33.344C474.024 33.344 471.871 33.6281 469.79 34.2004L470.744 37.6716ZM476.243 36.944C479.247 36.944 481.548 37.5059 483.258 38.5001L485.068 35.3879C482.65 33.9821 479.67 33.344 476.243 33.344V36.944ZM483.274 38.509C485.068 39.5283 486.365 40.9305 487.212 42.7452L490.474 41.2228C489.305 38.7175 487.482 36.7597 485.052 35.379L483.274 38.509ZM487.233 42.789C488.138 44.5983 488.627 46.8297 488.627 49.544H492.227C492.227 46.4022 491.66 43.5937 490.453 41.179L487.233 42.789ZM488.627 49.544V71H492.227V49.544H488.627ZM490.427 69.2H485.603V72.8H490.427V69.2ZM487.393 70.8102L486.889 66.0582L483.309 66.4378L483.813 71.1898L487.393 70.8102ZM485.099 64.448H484.883V68.048H485.099V64.448ZM483.758 64.8424C481.961 66.2805 479.928 67.5254 477.651 68.5727L479.155 71.8433C481.678 70.6826 483.965 69.2875 486.007 67.6536L483.758 64.8424ZM477.651 68.5727C475.472 69.5747 473.28 70.064 471.059 70.064V73.664C473.83 73.664 476.533 73.0493 479.155 71.8433L477.651 68.5727ZM472.643 68.912C474.94 68.912 477.189 68.3906 479.376 67.3772L477.862 64.1108C476.113 64.9214 474.378 65.312 472.643 65.312V68.912ZM479.376 67.3772C481.507 66.3895 483.605 65.0275 485.672 63.3136L483.374 60.5424C481.505 62.0925 479.667 63.2745 477.862 64.1108L479.376 67.3772ZM486.323 61.928V52.712H482.723V61.928H486.323ZM484.368 50.9187C479.331 51.3545 475.277 51.9658 472.251 52.7728L473.179 56.2512C475.912 55.5222 479.73 54.9335 484.678 54.5053L484.368 50.9187ZM472.244 52.7747C469.301 53.5727 466.924 54.6611 465.394 56.1912L467.94 58.7368C468.81 57.8669 470.464 56.9873 473.186 56.2493L472.244 52.7747ZM465.394 56.1912C463.927 57.658 463.139 59.4514 463.139 61.496H466.739C466.739 60.4686 467.102 59.574 467.94 58.7368L465.394 56.1912ZM463.139 61.496C463.139 63.1454 463.606 64.6524 464.636 65.8883L467.402 63.5837C466.992 63.0916 466.739 62.4386 466.739 61.496H463.139ZM464.669 65.9269C465.623 67.0077 466.84 67.7711 468.258 68.2436L469.396 64.8284C468.51 64.5329 467.855 64.0963 467.369 63.5451L464.669 65.9269ZM468.278 68.2504C469.667 68.6948 471.125 68.912 472.643 68.912V65.312C471.473 65.312 470.387 65.1452 469.375 64.8216L468.278 68.2504ZM514.231 71H512.431V72.8H514.231V71ZM514.231 36.008V34.208H512.431V36.008H514.231ZM519.127 36.008L520.923 35.8986L520.821 34.208H519.127V36.008ZM519.631 44.288L517.834 44.3974L517.937 46.088H519.631V44.288ZM519.847 44.288V46.088H520.828L521.36 45.2627L519.847 44.288ZM539.071 35.504L538.688 37.2629L538.731 37.2723L538.775 37.2795L539.071 35.504ZM542.383 36.584L544.122 37.0493L544.501 35.6308L543.188 34.974L542.383 36.584ZM541.015 41.696L540.405 43.3896L542.247 44.0528L542.754 42.1613L541.015 41.696ZM526.903 42.776L527.851 44.3058L527.859 44.3007L526.903 42.776ZM520.135 50.48L518.577 49.5781L518.335 49.9965V50.48H520.135ZM520.135 71V72.8H521.935V71H520.135ZM516.031 71V36.008H512.431V71H516.031ZM514.231 37.808H519.127V34.208H514.231V37.808ZM517.33 36.1174L517.834 44.3974L521.427 44.1786L520.923 35.8986L517.33 36.1174ZM519.631 46.088H519.847V42.488H519.631V46.088ZM521.36 45.2627C523.047 42.6434 525.111 40.611 527.549 39.1306L525.681 36.0534C522.743 37.837 520.295 40.2686 518.333 43.3133L521.36 45.2627ZM527.549 39.1306C529.949 37.6736 532.576 36.944 535.471 36.944V33.344C531.933 33.344 528.657 34.2464 525.681 36.0534L527.549 39.1306ZM535.471 36.944C536.657 36.944 537.727 37.0539 538.688 37.2629L539.453 33.7451C538.207 33.4741 536.877 33.344 535.471 33.344V36.944ZM538.775 37.2795C539.748 37.4417 540.68 37.7453 541.578 38.194L543.188 34.974C541.973 34.3667 540.698 33.9503 539.367 33.7285L538.775 37.2795ZM540.644 36.1187L539.276 41.2307L542.754 42.1613L544.122 37.0493L540.644 36.1187ZM541.624 40.0024C540.381 39.5548 539.272 39.2168 538.309 39.0029L537.528 42.5171C538.293 42.6872 539.248 42.9732 540.405 43.3896L541.624 40.0024ZM538.309 39.0029C537.266 38.771 535.993 38.672 534.535 38.672V42.272C535.861 42.272 536.844 42.365 537.528 42.5171L538.309 39.0029ZM534.535 38.672C531.525 38.672 528.653 39.5531 525.946 41.2513L527.859 44.3007C530.049 42.9269 532.265 42.272 534.535 42.272V38.672ZM525.954 41.2462C523.209 42.9483 520.77 45.7903 518.577 49.5781L521.693 51.3819C523.724 47.8737 525.797 45.5797 527.851 44.3058L525.954 41.2462ZM518.335 50.48V71H521.935V50.48H518.335ZM520.135 69.2H514.231V72.8H520.135V69.2ZM561.075 85.832L560.762 87.6046L560.77 87.6061L560.779 87.6075L561.075 85.832ZM558.915 85.328L557.173 84.8726L556.737 86.5412L558.385 87.0484L558.915 85.328ZM560.139 80.648L560.656 78.9239L558.869 78.3879L558.397 80.1926L560.139 80.648ZM561.651 81.008L561.329 82.779L561.342 82.7813L561.355 82.7835L561.651 81.008ZM569.283 78.992L568.074 77.6582L568.063 77.6684L568.052 77.6788L569.283 78.992ZM572.883 73.664L571.221 72.9717L571.216 72.9836L571.211 72.9955L572.883 73.664ZM573.963 71.072L575.624 71.7643L575.93 71.0313L575.594 70.3115L573.963 71.072ZM557.619 36.008V34.208H554.794L555.987 36.7685L557.619 36.008ZM563.595 36.008L565.241 35.2798L564.767 34.208H563.595V36.008ZM572.163 55.376L573.812 54.6545L573.809 54.6478L572.163 55.376ZM574.251 60.344L572.583 61.0203L572.594 61.0479L572.606 61.075L574.251 60.344ZM576.483 65.528L574.821 66.2203L575.283 67.328H576.483V65.528ZM576.771 65.528V67.328H578.022L578.458 66.1547L576.771 65.528ZM578.643 60.416L576.959 59.779L576.954 59.7918L576.95 59.8046L578.643 60.416ZM580.515 55.376L578.84 54.7161L578.831 54.7384L578.823 54.7609L580.515 55.376ZM588.147 36.008V34.208H586.921L586.472 35.3481L588.147 36.008ZM593.763 36.008L595.43 36.6863L596.438 34.208H593.763V36.008ZM578.355 73.88L576.687 73.2017L576.678 73.2247L576.669 73.248L578.355 73.88ZM575.115 80.072L573.647 79.0294L573.641 79.0384L573.635 79.0474L575.115 80.072ZM570.291 84.464L569.423 82.8868L569.415 82.8915L569.406 82.8962L570.291 84.464ZM563.523 84.248C562.866 84.248 562.15 84.1864 561.371 84.0565L560.779 87.6075C561.727 87.7656 562.643 87.848 563.523 87.848V84.248ZM561.387 84.0594C560.626 83.9251 559.981 83.7729 559.444 83.6076L558.385 87.0484C559.096 87.2672 559.891 87.451 560.762 87.6046L561.387 84.0594ZM560.656 85.7835L561.88 81.1035L558.397 80.1926L557.173 84.8726L560.656 85.7835ZM559.621 82.3721C560.17 82.5366 560.739 82.6718 561.329 82.779L561.973 79.237C561.506 79.1522 561.067 79.0474 560.656 78.9239L559.621 82.3721ZM561.355 82.7835C562.018 82.8941 562.67 82.952 563.307 82.952V79.352C562.888 79.352 562.435 79.3139 561.947 79.2325L561.355 82.7835ZM563.307 82.952C566.132 82.952 568.59 82.1085 570.514 80.3052L568.052 77.6788C566.903 78.7555 565.377 79.352 563.307 79.352V82.952ZM570.491 80.3258C572.254 78.7287 573.601 76.7152 574.554 74.3325L571.211 72.9955C570.436 74.9328 569.384 76.4713 568.074 77.6582L570.491 80.3258ZM574.544 74.3563L575.624 71.7643L572.301 70.3797L571.221 72.9717L574.544 74.3563ZM575.594 70.3115L559.25 35.2475L555.987 36.7685L572.331 71.8325L575.594 70.3115ZM557.619 37.808H563.595V34.208H557.619V37.808ZM561.949 36.7362L570.517 56.1042L573.809 54.6478L565.241 35.2798L561.949 36.7362ZM570.514 56.0975C571.178 57.6166 571.868 59.2573 572.583 61.0203L575.919 59.6677C575.193 57.8787 574.491 56.2074 573.812 54.6545L570.514 56.0975ZM572.606 61.075C573.368 62.7903 574.107 64.5054 574.821 66.2203L578.144 64.8357C577.419 63.0946 576.669 61.3537 575.895 59.613L572.606 61.075ZM576.483 67.328H576.771V63.728H576.483V67.328ZM578.458 66.1547C579.084 64.4695 579.71 62.7604 580.336 61.0274L576.95 59.8046C576.327 61.5276 575.705 63.2265 575.083 64.9013L578.458 66.1547ZM580.326 61.053C581.001 59.2706 581.627 57.5833 582.206 55.9911L578.823 54.7609C578.25 56.3367 577.629 58.0094 576.959 59.779L580.326 61.053ZM582.189 56.0359L589.821 36.6679L586.472 35.3481L578.84 54.7161L582.189 56.0359ZM588.147 37.808H593.763V34.208H588.147V37.808ZM592.095 35.3297L576.687 73.2017L580.022 74.5583L595.43 36.6863L592.095 35.3297ZM576.669 73.248C575.855 75.4206 574.845 77.3442 573.647 79.0294L576.582 81.1146C577.977 79.1518 579.127 76.9474 580.04 74.512L576.669 73.248ZM573.635 79.0474C572.491 80.6995 571.089 81.9704 569.423 82.8868L571.158 86.0412C573.332 84.8456 575.146 83.1885 576.595 81.0966L573.635 79.0474ZM569.406 82.8962C567.859 83.7689 565.923 84.248 563.523 84.248V87.848C566.402 87.848 568.978 87.2711 571.175 86.0318L569.406 82.8962Z" fill="black"/>
<path d="M125.752 459V428.832H109.48V424.008H131.656V459H125.752ZM128.056 416.664C126.712 416.664 125.584 416.256 124.672 415.44C123.76 414.576 123.304 413.448 123.304 412.056C123.304 410.664 123.76 409.56 124.672 408.744C125.584 407.88 126.712 407.448 128.056 407.448C129.4 407.448 130.528 407.88 131.44 408.744C132.352 409.56 132.808 410.664 132.808 412.056C132.808 413.448 132.352 414.576 131.44 415.44C130.528 416.256 129.4 416.664 128.056 416.664ZM175.692 459.864C172.284 459.864 169.092 459.312 166.116 458.208C163.14 457.104 160.596 455.832 158.484 454.392L161.22 450.504C163.236 451.944 165.468 453.096 167.916 453.96C170.364 454.824 173.196 455.256 176.412 455.256C179.388 455.256 181.596 454.704 183.036 453.6C184.524 452.496 185.268 451.224 185.268 449.784C185.268 449.112 185.124 448.488 184.836 447.912C184.596 447.336 184.092 446.784 183.324 446.256C182.604 445.728 181.524 445.224 180.084 444.744C178.644 444.264 176.724 443.784 174.324 443.304C169.764 442.344 166.332 441.048 164.028 439.416C161.772 437.784 160.644 435.672 160.644 433.08C160.644 430.248 161.868 427.896 164.316 426.024C166.764 424.104 170.388 423.144 175.188 423.144C177.876 423.144 180.468 423.6 182.964 424.512C185.46 425.376 187.572 426.408 189.3 427.608L186.42 431.424C184.836 430.272 183.036 429.384 181.02 428.76C179.004 428.088 176.892 427.752 174.684 427.752C172.668 427.752 171.06 427.992 169.86 428.472C168.708 428.904 167.868 429.504 167.34 430.272C166.86 431.04 166.62 431.88 166.62 432.792C166.62 434.28 167.412 435.456 168.996 436.32C170.628 437.136 173.22 437.904 176.772 438.624C180.66 439.44 183.636 440.352 185.7 441.36C187.812 442.368 189.252 443.52 190.02 444.816C190.836 446.112 191.244 447.648 191.244 449.424C191.244 451.344 190.644 453.096 189.444 454.68C188.244 456.216 186.492 457.464 184.188 458.424C181.884 459.384 179.052 459.864 175.692 459.864ZM277.876 459.864C274.372 459.864 271.18 459.144 268.3 457.704C265.468 456.264 263.212 454.176 261.532 451.44C259.852 448.656 259.012 445.32 259.012 441.432C259.012 437.64 259.852 434.376 261.532 431.64C263.212 428.904 265.396 426.816 268.084 425.376C270.82 423.888 273.748 423.144 276.868 423.144C280.228 423.144 283.084 423.84 285.436 425.232C287.836 426.576 289.66 428.472 290.908 430.92C292.204 433.368 292.852 436.248 292.852 439.56C292.852 440.232 292.828 440.88 292.78 441.504C292.732 442.128 292.66 442.68 292.564 443.16H262.972V438.552H289.036L287.524 440.208C287.524 436.08 286.564 432.984 284.644 430.92C282.772 428.856 280.228 427.824 277.012 427.824C274.852 427.824 272.836 428.352 270.964 429.408C269.14 430.464 267.676 432 266.572 434.016C265.468 436.032 264.916 438.504 264.916 441.432C264.916 444.456 265.516 446.976 266.716 448.992C267.916 451.008 269.548 452.544 271.612 453.6C273.676 454.608 276.004 455.112 278.596 455.112C280.708 455.112 282.604 454.824 284.284 454.248C286.012 453.624 287.668 452.808 289.252 451.8L291.412 455.688C289.684 456.84 287.692 457.824 285.436 458.64C283.228 459.456 280.708 459.864 277.876 459.864ZM308.664 459V424.008H313.416L313.92 428.616H314.064C314.976 426.984 316.032 425.664 317.232 424.656C318.432 423.648 320.04 423.144 322.056 423.144C323.784 423.144 325.2 423.648 326.304 424.656C327.408 425.664 328.2 427.176 328.68 429.192C329.688 427.32 330.792 425.856 331.992 424.8C333.24 423.696 334.872 423.144 336.888 423.144C339.336 423.144 341.232 424.08 342.576 425.952C343.968 427.776 344.664 430.44 344.664 433.944V459H338.76V434.376C338.76 430.296 337.512 428.256 335.016 428.256C333.816 428.256 332.808 428.712 331.992 429.624C331.224 430.488 330.36 431.832 329.4 433.656V459H323.928V434.376C323.928 432.36 323.64 430.848 323.064 429.84C322.536 428.784 321.624 428.256 320.328 428.256C319.128 428.256 318.072 428.712 317.16 429.624C316.296 430.488 315.432 431.832 314.568 433.656V459H308.664ZM361.555 473.76V424.008H366.451L366.955 428.472H367.171C368.803 426.936 370.675 425.664 372.787 424.656C374.947 423.648 377.107 423.144 379.267 423.144C382.435 423.144 385.075 423.888 387.187 425.376C389.347 426.816 390.979 428.88 392.083 431.568C393.187 434.208 393.739 437.352 393.739 441C393.739 444.936 392.995 448.32 391.507 451.152C390.019 453.984 388.075 456.144 385.675 457.632C383.275 459.12 380.659 459.864 377.827 459.864C376.243 459.864 374.491 459.48 372.571 458.712C370.699 457.896 368.971 456.768 367.387 455.328H367.171L367.459 461.952V473.76H361.555ZM376.819 454.896C378.883 454.896 380.731 454.344 382.363 453.24C383.995 452.136 385.267 450.552 386.179 448.488C387.139 446.376 387.619 443.88 387.619 441C387.619 438.456 387.283 436.224 386.611 434.304C385.939 432.336 384.883 430.824 383.443 429.768C382.003 428.664 380.107 428.112 377.755 428.112C376.171 428.112 374.491 428.544 372.715 429.408C370.987 430.224 369.235 431.544 367.459 433.368V450.792C369.139 452.28 370.819 453.336 372.499 453.96C374.227 454.584 375.667 454.896 376.819 454.896ZM433.599 459.864C430.191 459.864 427.503 459.264 425.535 458.064C423.567 456.816 422.151 455.112 421.287 452.952C420.471 450.792 420.063 448.272 420.063 445.392V428.832H410.199V424.368L420.279 424.008L421.071 412.776H425.967V424.008H443.175V428.832H425.967V445.464C425.967 447.528 426.231 449.28 426.759 450.72C427.287 452.16 428.199 453.24 429.495 453.96C430.791 454.68 432.567 455.04 434.823 455.04C436.503 455.04 438.015 454.896 439.359 454.608C440.703 454.32 441.999 453.936 443.247 453.456L444.543 457.776C442.959 458.352 441.279 458.832 439.503 459.216C437.775 459.648 435.807 459.864 433.599 459.864ZM465.035 474.048C464.267 474.048 463.451 473.976 462.587 473.832C461.771 473.688 461.051 473.52 460.427 473.328L461.651 468.648C462.131 468.792 462.635 468.912 463.163 469.008C463.739 469.104 464.291 469.152 464.819 469.152C467.267 469.152 469.259 468.432 470.795 466.992C472.331 465.6 473.531 463.824 474.395 461.664L475.475 459.072L459.131 424.008H465.107L473.675 443.376C474.347 444.912 475.043 446.568 475.763 448.344C476.531 450.072 477.275 451.8 477.995 453.528H478.283C478.907 451.848 479.531 450.144 480.155 448.416C480.827 446.64 481.451 444.96 482.027 443.376L489.659 424.008H495.275L479.867 461.88C479.003 464.184 477.923 466.248 476.627 468.072C475.331 469.944 473.723 471.408 471.803 472.464C469.931 473.52 467.675 474.048 465.035 474.048Z" fill="white"/>
<path d="M125.752 459H123.952V460.8H125.752V459ZM125.752 428.832H127.552V427.032H125.752V428.832ZM109.48 428.832H107.68V430.632H109.48V428.832ZM109.48 424.008V422.208H107.68V424.008H109.48ZM131.656 424.008H133.456V422.208H131.656V424.008ZM131.656 459V460.8H133.456V459H131.656ZM124.672 415.44L123.434 416.747L123.453 416.764L123.472 416.781L124.672 415.44ZM124.672 408.744L125.872 410.085L125.891 410.068L125.91 410.051L124.672 408.744ZM131.44 408.744L130.202 410.051L130.221 410.068L130.24 410.085L131.44 408.744ZM131.44 415.44L132.64 416.781L132.659 416.764L132.678 416.747L131.44 415.44ZM127.552 459V428.832H123.952V459H127.552ZM125.752 427.032H109.48V430.632H125.752V427.032ZM111.28 428.832V424.008H107.68V428.832H111.28ZM109.48 425.808H131.656V422.208H109.48V425.808ZM129.856 424.008V459H133.456V424.008H129.856ZM131.656 457.2H125.752V460.8H131.656V457.2ZM128.056 414.864C127.108 414.864 126.421 414.589 125.872 414.099L123.472 416.781C124.747 417.923 126.316 418.464 128.056 418.464V414.864ZM125.91 414.133C125.397 413.648 125.104 413.013 125.104 412.056H121.504C121.504 413.883 122.123 415.504 123.434 416.747L125.91 414.133ZM125.104 412.056C125.104 411.098 125.396 410.511 125.872 410.085L123.472 407.403C122.124 408.609 121.504 410.23 121.504 412.056H125.104ZM125.91 410.051C126.463 409.527 127.137 409.248 128.056 409.248V405.648C126.287 405.648 124.705 406.233 123.434 407.437L125.91 410.051ZM128.056 409.248C128.975 409.248 129.649 409.527 130.202 410.051L132.678 407.437C131.407 406.233 129.825 405.648 128.056 405.648V409.248ZM130.24 410.085C130.716 410.511 131.008 411.098 131.008 412.056H134.608C134.608 410.23 133.988 408.609 132.64 407.403L130.24 410.085ZM131.008 412.056C131.008 413.013 130.715 413.648 130.202 414.133L132.678 416.747C133.989 415.504 134.608 413.883 134.608 412.056H131.008ZM130.24 414.099C129.691 414.589 129.004 414.864 128.056 414.864V418.464C129.796 418.464 131.365 417.923 132.64 416.781L130.24 414.099ZM166.116 458.208L165.49 459.896L165.49 459.896L166.116 458.208ZM158.484 454.392L157.012 453.356L155.961 454.85L157.47 455.879L158.484 454.392ZM161.22 450.504L162.266 449.039L160.791 447.986L159.748 449.468L161.22 450.504ZM167.916 453.96L167.317 455.657L167.317 455.657L167.916 453.96ZM183.036 453.6L181.963 452.154L181.952 452.163L181.941 452.172L183.036 453.6ZM184.836 447.912L183.174 448.604L183.198 448.662L183.226 448.717L184.836 447.912ZM183.324 446.256L182.259 447.708L182.282 447.724L182.304 447.739L183.324 446.256ZM180.084 444.744L180.653 443.036L180.653 443.036L180.084 444.744ZM174.324 443.304L173.953 445.065L173.962 445.067L173.971 445.069L174.324 443.304ZM164.028 439.416L162.973 440.874L162.98 440.88L162.987 440.885L164.028 439.416ZM164.316 426.024L165.409 427.454L165.418 427.447L165.427 427.44L164.316 426.024ZM182.964 424.512L182.346 426.203L182.361 426.208L182.375 426.213L182.964 424.512ZM189.3 427.608L190.737 428.692L191.865 427.198L190.327 426.13L189.3 427.608ZM186.42 431.424L185.361 432.88L186.791 433.92L187.857 432.508L186.42 431.424ZM181.02 428.76L180.451 430.468L180.469 430.474L180.488 430.48L181.02 428.76ZM169.86 428.472L170.492 430.157L170.51 430.151L170.528 430.143L169.86 428.472ZM167.34 430.272L165.857 429.252L165.834 429.285L165.813 429.318L167.34 430.272ZM168.996 436.32L168.134 437.9L168.162 437.916L168.191 437.93L168.996 436.32ZM176.772 438.624L177.142 436.862L177.129 436.86L176.772 438.624ZM185.7 441.36L184.91 442.977L184.917 442.981L184.925 442.984L185.7 441.36ZM190.02 444.816L188.471 445.734L188.484 445.755L188.497 445.775L190.02 444.816ZM189.444 454.68L190.862 455.788L190.871 455.778L190.879 455.767L189.444 454.68ZM184.188 458.424L184.88 460.086L184.88 460.086L184.188 458.424ZM175.692 458.064C172.482 458.064 169.503 457.545 166.742 456.52L165.49 459.896C168.681 461.079 172.086 461.664 175.692 461.664V458.064ZM166.742 456.52C163.871 455.456 161.464 454.246 159.498 452.905L157.47 455.879C159.727 457.418 162.408 458.752 165.49 459.896L166.742 456.52ZM159.956 455.428L162.692 451.54L159.748 449.468L157.012 453.356L159.956 455.428ZM160.174 451.969C162.333 453.511 164.717 454.74 167.317 455.657L168.515 452.263C166.219 451.452 164.138 450.377 162.266 449.039L160.174 451.969ZM167.317 455.657C169.997 456.603 173.039 457.056 176.412 457.056V453.456C173.353 453.456 170.731 453.045 168.515 452.263L167.317 455.657ZM176.412 457.056C179.551 457.056 182.232 456.485 184.131 455.028L181.941 452.172C180.96 452.923 179.225 453.456 176.412 453.456V457.056ZM184.108 455.046C185.91 453.709 187.068 451.952 187.068 449.784H183.468C183.468 450.496 183.138 451.283 181.963 452.154L184.108 455.046ZM187.068 449.784C187.068 448.845 186.864 447.944 186.446 447.107L183.226 448.717C183.383 449.032 183.468 449.379 183.468 449.784H187.068ZM186.497 447.22C186.074 446.202 185.265 445.406 184.344 444.773L182.304 447.739C182.919 448.162 183.118 448.47 183.174 448.604L186.497 447.22ZM184.388 444.804C183.448 444.115 182.165 443.54 180.653 443.036L179.515 446.452C180.883 446.908 181.759 447.341 182.259 447.708L184.388 444.804ZM180.653 443.036C179.113 442.523 177.112 442.026 174.677 441.539L173.971 445.069C176.336 445.542 178.175 446.005 179.515 446.452L180.653 443.036ZM174.695 441.543C170.239 440.605 167.082 439.374 165.068 437.947L162.987 440.885C165.581 442.722 169.289 444.083 173.953 445.065L174.695 441.543ZM165.083 437.958C163.254 436.635 162.444 435.046 162.444 433.08H158.844C158.844 436.298 160.29 438.933 162.973 440.874L165.083 437.958ZM162.444 433.08C162.444 430.863 163.361 429.02 165.409 427.454L163.222 424.594C160.374 426.772 158.844 429.633 158.844 433.08H162.444ZM165.427 427.44C167.427 425.872 170.584 424.944 175.188 424.944V421.344C170.192 421.344 166.101 422.336 163.205 424.608L165.427 427.44ZM175.188 424.944C177.668 424.944 180.05 425.364 182.346 426.203L183.582 422.821C180.885 421.836 178.084 421.344 175.188 421.344V424.944ZM182.375 426.213C184.753 427.036 186.71 428.001 188.273 429.086L190.327 426.13C188.434 424.815 186.166 423.716 183.553 422.811L182.375 426.213ZM187.863 426.524L184.983 430.34L187.857 432.508L190.737 428.692L187.863 426.524ZM187.479 429.968C185.723 428.691 183.742 427.718 181.552 427.04L180.488 430.48C182.33 431.05 183.949 431.853 185.361 432.88L187.479 429.968ZM181.589 427.052C179.382 426.317 177.078 425.952 174.684 425.952V429.552C176.706 429.552 178.625 429.859 180.451 430.468L181.589 427.052ZM174.684 425.952C172.553 425.952 170.689 426.202 169.191 426.801L170.528 430.143C171.431 429.782 172.783 429.552 174.684 429.552V425.952ZM169.228 426.787C167.84 427.307 166.651 428.097 165.857 429.252L168.823 431.292C169.085 430.911 169.576 430.501 170.492 430.157L169.228 426.787ZM165.813 429.318C165.153 430.374 164.82 431.545 164.82 432.792H168.42C168.42 432.215 168.566 431.706 168.866 431.226L165.813 429.318ZM164.82 432.792C164.82 435.09 166.118 436.801 168.134 437.9L169.858 434.74C168.706 434.111 168.42 433.47 168.42 432.792H164.82ZM168.191 437.93C170.044 438.856 172.828 439.661 176.414 440.388L177.129 436.86C173.612 436.147 171.212 435.416 169.801 434.71L168.191 437.93ZM176.402 440.386C180.234 441.19 183.042 442.065 184.91 442.977L186.49 439.743C184.23 438.639 181.086 437.69 177.142 436.862L176.402 440.386ZM184.925 442.984C186.879 443.918 187.96 444.871 188.471 445.734L191.568 443.898C190.543 442.169 188.744 440.818 186.475 439.736L184.925 442.984ZM188.497 445.775C189.104 446.74 189.444 447.932 189.444 449.424H193.044C193.044 447.364 192.567 445.484 191.543 443.857L188.497 445.775ZM189.444 449.424C189.444 450.937 188.981 452.31 188.009 453.593L190.879 455.767C192.307 453.882 193.044 451.751 193.044 449.424H189.444ZM188.025 453.572C187.062 454.805 185.592 455.889 183.496 456.762L184.88 460.086C187.391 459.039 189.426 457.627 190.862 455.788L188.025 453.572ZM183.496 456.762C181.473 457.605 178.892 458.064 175.692 458.064V461.664C179.212 461.664 182.295 461.163 184.88 460.086L183.496 456.762ZM268.3 457.704L267.484 459.309L267.495 459.314L268.3 457.704ZM261.532 451.44L259.99 452.37L259.998 452.382L261.532 451.44ZM261.532 431.64L259.998 430.698L259.998 430.698L261.532 431.64ZM268.084 425.376L268.934 426.963L268.944 426.957L268.084 425.376ZM285.436 425.232L284.519 426.781L284.537 426.792L284.556 426.803L285.436 425.232ZM290.908 430.92L289.304 431.738L289.31 431.75L289.317 431.762L290.908 430.92ZM292.78 441.504L290.985 441.366L290.985 441.366L292.78 441.504ZM292.564 443.16V444.96H294.039L294.329 443.513L292.564 443.16ZM262.972 443.16H261.172V444.96H262.972V443.16ZM262.972 438.552V436.752H261.172V438.552H262.972ZM289.036 438.552L290.365 439.766L293.117 436.752H289.036V438.552ZM287.524 440.208H285.724V444.849L288.853 441.422L287.524 440.208ZM284.644 430.92L283.31 432.129L283.318 432.138L283.326 432.146L284.644 430.92ZM270.964 429.408L270.079 427.84L270.07 427.845L270.062 427.85L270.964 429.408ZM266.572 434.016L268.15 434.881L268.15 434.881L266.572 434.016ZM266.716 448.992L268.262 448.071L268.262 448.071L266.716 448.992ZM271.612 453.6L270.792 455.202L270.807 455.21L270.822 455.217L271.612 453.6ZM284.284 454.248L284.867 455.951L284.881 455.946L284.895 455.941L284.284 454.248ZM289.252 451.8L290.825 450.926L289.897 449.256L288.285 450.281L289.252 451.8ZM291.412 455.688L292.41 457.186L293.791 456.265L292.985 454.814L291.412 455.688ZM285.436 458.64L284.823 456.947L284.812 456.952L285.436 458.64ZM277.876 458.064C274.626 458.064 271.713 457.398 269.105 456.094L267.495 459.314C270.646 460.89 274.117 461.664 277.876 461.664V458.064ZM269.115 456.1C266.583 454.812 264.574 452.954 263.066 450.498L259.998 452.382C261.849 455.398 264.353 457.716 267.484 459.308L269.115 456.1ZM263.073 450.51C261.593 448.057 260.812 445.057 260.812 441.432H257.212C257.212 445.583 258.111 449.255 259.99 452.37L263.073 450.51ZM260.812 441.432C260.812 437.912 261.589 434.987 263.066 432.582L259.998 430.698C258.114 433.765 257.212 437.368 257.212 441.432H260.812ZM263.066 432.582C264.588 430.103 266.542 428.244 268.934 426.963L267.234 423.789C264.25 425.388 261.835 427.705 259.998 430.698L263.066 432.582ZM268.944 426.957C271.415 425.613 274.047 424.944 276.868 424.944V421.344C273.448 421.344 270.224 422.163 267.224 423.795L268.944 426.957ZM276.868 424.944C279.979 424.944 282.502 425.587 284.519 426.781L286.352 423.683C283.666 422.093 280.477 421.344 276.868 421.344V424.944ZM284.556 426.803C286.646 427.973 288.218 429.607 289.304 431.738L292.511 430.102C291.101 427.337 289.025 425.179 286.315 423.661L284.556 426.803ZM289.317 431.762C290.451 433.905 291.052 436.484 291.052 439.56H294.652C294.652 436.012 293.956 432.831 292.498 430.078L289.317 431.762ZM291.052 439.56C291.052 440.189 291.029 440.791 290.985 441.366L294.574 441.642C294.626 440.969 294.652 440.275 294.652 439.56H291.052ZM290.985 441.366C290.941 441.937 290.877 442.414 290.799 442.807L294.329 443.513C294.442 442.946 294.522 442.319 294.574 441.642L290.985 441.366ZM292.564 441.36H262.972V444.96H292.564V441.36ZM264.772 443.16V438.552H261.172V443.16H264.772ZM262.972 440.352H289.036V436.752H262.972V440.352ZM287.706 437.338L286.194 438.994L288.853 441.422L290.365 439.766L287.706 437.338ZM289.324 440.208C289.324 435.834 288.309 432.217 285.962 429.694L283.326 432.146C284.818 433.751 285.724 436.326 285.724 440.208H289.324ZM285.977 429.711C283.71 427.211 280.649 426.024 277.012 426.024V429.624C279.806 429.624 281.833 430.501 283.31 432.129L285.977 429.711ZM277.012 426.024C274.543 426.024 272.223 426.631 270.079 427.84L271.848 430.976C273.449 430.073 275.16 429.624 277.012 429.624V426.024ZM270.062 427.85C267.927 429.086 266.24 430.874 264.993 433.151L268.15 434.881C269.111 433.126 270.352 431.842 271.865 430.966L270.062 427.85ZM264.993 433.151C263.709 435.495 263.116 438.283 263.116 441.432H266.716C266.716 438.725 267.226 436.569 268.15 434.881L264.993 433.151ZM263.116 441.432C263.116 444.688 263.762 447.549 265.169 449.913L268.262 448.071C267.27 446.403 266.716 444.224 266.716 441.432H263.116ZM265.169 449.913C266.54 452.216 268.422 453.99 270.792 455.202L272.431 451.998C270.673 451.098 269.291 449.8 268.262 448.071L265.169 449.913ZM270.822 455.217C273.162 456.36 275.765 456.912 278.596 456.912V453.312C276.242 453.312 274.19 452.856 272.402 451.983L270.822 455.217ZM278.596 456.912C280.87 456.912 282.968 456.602 284.867 455.951L283.7 452.545C282.239 453.046 280.546 453.312 278.596 453.312V456.912ZM284.895 455.941C286.75 455.271 288.525 454.396 290.218 453.319L288.285 450.281C286.81 451.22 285.273 451.977 283.672 452.555L284.895 455.941ZM287.678 452.674L289.838 456.562L292.985 454.814L290.825 450.926L287.678 452.674ZM290.413 454.19C288.823 455.251 286.964 456.173 284.823 456.947L286.048 460.333C288.419 459.475 290.545 458.429 292.41 457.186L290.413 454.19ZM284.812 456.952C282.839 457.68 280.537 458.064 277.876 458.064V461.664C280.879 461.664 283.616 461.232 286.06 460.328L284.812 456.952ZM308.664 459H306.864V460.8H308.664V459ZM308.664 424.008V422.208H306.864V424.008H308.664ZM313.416 424.008L315.205 423.812L315.029 422.208H313.416V424.008ZM313.92 428.616L312.13 428.812L312.306 430.416H313.92V428.616ZM314.064 428.616V430.416H315.12L315.635 429.494L314.064 428.616ZM317.232 424.656L316.074 423.278L316.074 423.278L317.232 424.656ZM328.68 429.192L326.928 429.609L328.023 434.207L330.264 430.045L328.68 429.192ZM331.992 424.8L333.181 426.151L333.184 426.148L331.992 424.8ZM342.576 425.952L341.113 427.002L341.129 427.023L341.145 427.044L342.576 425.952ZM344.664 459V460.8H346.464V459H344.664ZM338.76 459H336.96V460.8H338.76V459ZM331.992 429.624L330.65 428.424L330.646 428.428L331.992 429.624ZM329.4 433.656L327.807 432.818L327.6 433.211V433.656H329.4ZM329.4 459V460.8H331.2V459H329.4ZM323.928 459H322.128V460.8H323.928V459ZM323.064 429.84L321.454 430.645L321.476 430.69L321.501 430.733L323.064 429.84ZM314.568 433.656L312.941 432.885L312.768 433.251V433.656H314.568ZM314.568 459V460.8H316.368V459H314.568ZM310.464 459V424.008H306.864V459H310.464ZM308.664 425.808H313.416V422.208H308.664V425.808ZM311.626 424.204L312.13 428.812L315.709 428.42L315.205 423.812L311.626 424.204ZM313.92 430.416H314.064V426.816H313.92V430.416ZM315.635 429.494C316.46 428.017 317.385 426.878 318.389 426.034L316.074 423.278C314.678 424.45 313.491 425.951 312.492 427.738L315.635 429.494ZM318.389 426.034C319.181 425.369 320.339 424.944 322.056 424.944V421.344C319.74 421.344 317.682 421.927 316.074 423.278L318.389 426.034ZM322.056 424.944C323.409 424.944 324.369 425.327 325.09 425.985L327.517 423.327C326.03 421.969 324.158 421.344 322.056 421.344V424.944ZM325.09 425.985C325.842 426.672 326.501 427.813 326.928 429.609L330.431 428.775C329.898 426.539 328.973 424.656 327.517 423.327L325.09 425.985ZM330.264 430.045C331.203 428.303 332.184 427.028 333.181 426.151L330.802 423.449C329.399 424.684 328.172 426.337 327.095 428.339L330.264 430.045ZM333.184 426.148C334.037 425.394 335.214 424.944 336.888 424.944V421.344C334.529 421.344 332.442 421.998 330.799 423.452L333.184 426.148ZM336.888 424.944C338.798 424.944 340.131 425.634 341.113 427.002L344.038 424.902C342.332 422.526 339.873 421.344 336.888 421.344V424.944ZM341.145 427.044C342.2 428.427 342.864 430.638 342.864 433.944H346.464C346.464 430.242 345.735 427.125 344.006 424.86L341.145 427.044ZM342.864 433.944V459H346.464V433.944H342.864ZM344.664 457.2H338.76V460.8H344.664V457.2ZM340.56 459V434.376H336.96V459H340.56ZM340.56 434.376C340.56 432.211 340.239 430.285 339.359 428.847C338.391 427.264 336.857 426.456 335.016 426.456V430.056C335.67 430.056 336.008 430.268 336.288 430.725C336.656 431.327 336.96 432.461 336.96 434.376H340.56ZM335.016 426.456C333.292 426.456 331.8 427.139 330.65 428.424L333.333 430.824C333.815 430.285 334.339 430.056 335.016 430.056V426.456ZM330.646 428.428C329.734 429.454 328.79 430.948 327.807 432.818L330.992 434.494C331.929 432.716 332.713 431.522 333.337 430.82L330.646 428.428ZM327.6 433.656V459H331.2V433.656H327.6ZM329.4 457.2H323.928V460.8H329.4V457.2ZM325.728 459V434.376H322.128V459H325.728ZM325.728 434.376C325.728 432.248 325.434 430.36 324.626 428.947L321.501 430.733C321.845 431.336 322.128 432.472 322.128 434.376H325.728ZM324.673 429.035C324.272 428.231 323.682 427.555 322.885 427.094C322.099 426.639 321.22 426.456 320.328 426.456V430.056C320.731 430.056 320.956 430.137 321.082 430.21C321.197 430.277 321.327 430.393 321.454 430.645L324.673 429.035ZM320.328 426.456C318.612 426.456 317.108 427.13 315.887 428.351L318.432 430.897C319.035 430.294 319.643 430.056 320.328 430.056V426.456ZM315.887 428.351C314.813 429.425 313.843 430.98 312.941 432.885L316.194 434.427C317.02 432.684 317.778 431.551 318.432 430.897L315.887 428.351ZM312.768 433.656V459H316.368V433.656H312.768ZM314.568 457.2H308.664V460.8H314.568V457.2ZM361.555 473.76H359.755V475.56H361.555V473.76ZM361.555 424.008V422.208H359.755V424.008H361.555ZM366.451 424.008L368.24 423.806L368.06 422.208H366.451V424.008ZM366.955 428.472L365.167 428.674L365.347 430.272H366.955V428.472ZM367.171 428.472V430.272H367.885L368.405 429.783L367.171 428.472ZM372.787 424.656L372.026 423.025L372.019 423.028L372.012 423.032L372.787 424.656ZM387.187 425.376L386.151 426.847L386.17 426.861L386.189 426.874L387.187 425.376ZM392.083 431.568L390.418 432.252L390.423 432.262L392.083 431.568ZM391.507 451.152L389.914 450.315L389.914 450.315L391.507 451.152ZM385.675 457.632L386.624 459.162L386.624 459.162L385.675 457.632ZM372.571 458.712L371.852 460.362L371.877 460.373L371.903 460.383L372.571 458.712ZM367.387 455.328L368.598 453.996L368.083 453.528H367.387V455.328ZM367.171 455.328V453.528H365.291L365.373 455.406L367.171 455.328ZM367.459 461.952H369.259V461.913L369.258 461.874L367.459 461.952ZM367.459 473.76V475.56H369.259V473.76H367.459ZM382.363 453.24L383.372 454.731L383.372 454.731L382.363 453.24ZM386.179 448.488L384.541 447.743L384.537 447.752L384.533 447.761L386.179 448.488ZM386.611 434.304L384.908 434.886L384.912 434.899L386.611 434.304ZM383.443 429.768L382.348 431.196L382.363 431.208L382.379 431.22L383.443 429.768ZM372.715 429.408L373.484 431.036L373.493 431.031L373.503 431.027L372.715 429.408ZM367.459 433.368L366.17 432.112L365.659 432.636V433.368H367.459ZM367.459 450.792H365.659V451.602L366.266 452.139L367.459 450.792ZM372.499 453.96L371.873 455.647L371.88 455.65L371.888 455.653L372.499 453.96ZM363.355 473.76V424.008H359.755V473.76H363.355ZM361.555 425.808H366.451V422.208H361.555V425.808ZM364.663 424.21L365.167 428.674L368.744 428.27L368.24 423.806L364.663 424.21ZM366.955 430.272H367.171V426.672H366.955V430.272ZM368.405 429.783C369.895 428.38 371.611 427.212 373.563 426.28L372.012 423.032C369.739 424.116 367.711 425.492 365.938 427.161L368.405 429.783ZM373.549 426.287C375.495 425.379 377.397 424.944 379.267 424.944V421.344C376.818 421.344 374.4 421.917 372.026 423.025L373.549 426.287ZM379.267 424.944C382.149 424.944 384.405 425.618 386.151 426.847L388.224 423.905C385.746 422.158 382.721 421.344 379.267 421.344V424.944ZM386.189 426.874C388.016 428.092 389.434 429.854 390.418 432.252L393.748 430.884C392.525 427.906 390.679 425.54 388.186 423.878L386.189 426.874ZM390.423 432.262C391.413 434.631 391.939 437.528 391.939 441H395.539C395.539 437.176 394.962 433.785 393.744 430.874L390.423 432.262ZM391.939 441C391.939 444.711 391.238 447.794 389.914 450.315L393.101 451.989C394.752 448.846 395.539 445.161 395.539 441H391.939ZM389.914 450.315C388.555 452.901 386.819 454.805 384.727 456.102L386.624 459.162C389.332 457.483 391.484 455.067 393.101 451.989L389.914 450.315ZM384.727 456.102C382.613 457.413 380.325 458.064 377.827 458.064V461.664C380.994 461.664 383.938 460.827 386.624 459.162L384.727 456.102ZM377.827 458.064C376.531 458.064 375.009 457.748 373.24 457.041L371.903 460.383C373.974 461.212 375.956 461.664 377.827 461.664V458.064ZM373.291 457.062C371.607 456.328 370.044 455.31 368.598 453.996L366.177 456.66C367.899 458.226 369.791 459.464 371.852 460.362L373.291 457.062ZM367.387 453.528H367.171V457.128H367.387V453.528ZM365.373 455.406L365.661 462.03L369.258 461.874L368.97 455.25L365.373 455.406ZM365.659 461.952V473.76H369.259V461.952H365.659ZM367.459 471.96H361.555V475.56H367.459V471.96ZM376.819 456.696C379.225 456.696 381.428 456.046 383.372 454.731L381.355 451.749C380.035 452.642 378.542 453.096 376.819 453.096V456.696ZM383.372 454.731C385.323 453.411 386.797 451.543 387.826 449.215L384.533 447.761C383.737 449.561 382.668 450.861 381.355 451.749L383.372 454.731ZM387.818 449.233C388.907 446.838 389.419 444.077 389.419 441H385.819C385.819 443.683 385.372 445.914 384.541 447.743L387.818 449.233ZM389.419 441C389.419 438.302 389.064 435.862 388.31 433.709L384.912 434.899C385.503 436.586 385.819 438.61 385.819 441H389.419ZM388.315 433.722C387.544 431.465 386.291 429.624 384.508 428.316L382.379 431.22C383.475 432.024 384.335 433.207 384.908 434.886L388.315 433.722ZM384.539 428.34C382.702 426.932 380.385 426.312 377.755 426.312V429.912C379.829 429.912 381.305 430.396 382.348 431.196L384.539 428.34ZM377.755 426.312C375.84 426.312 373.89 426.835 371.928 427.789L373.503 431.027C375.093 430.253 376.503 429.912 377.755 429.912V426.312ZM371.947 427.78C369.972 428.713 368.049 430.182 366.17 432.112L368.749 434.624C370.422 432.906 372.003 431.735 373.484 431.036L371.947 427.78ZM365.659 433.368V450.792H369.259V433.368H365.659ZM366.266 452.139C368.072 453.739 369.939 454.929 371.873 455.647L373.126 452.273C371.7 451.743 370.207 450.821 368.653 449.445L366.266 452.139ZM371.888 455.653C373.71 456.311 375.372 456.696 376.819 456.696V453.096C375.962 453.096 374.745 452.857 373.111 452.267L371.888 455.653ZM425.535 458.064L424.571 459.584L424.585 459.593L424.598 459.601L425.535 458.064ZM421.287 452.952L419.603 453.588L419.61 453.604L419.616 453.621L421.287 452.952ZM420.063 428.832H421.863V427.032H420.063V428.832ZM410.199 428.832H408.399V430.632H410.199V428.832ZM410.199 424.368L410.135 422.569L408.399 422.631V424.368H410.199ZM420.279 424.008L420.344 425.807L421.961 425.749L422.075 424.135L420.279 424.008ZM421.071 412.776V410.976H419.394L419.276 412.649L421.071 412.776ZM425.967 412.776H427.767V410.976H425.967V412.776ZM425.967 424.008H424.167V425.808H425.967V424.008ZM443.175 424.008H444.975V422.208H443.175V424.008ZM443.175 428.832V430.632H444.975V428.832H443.175ZM425.967 428.832V427.032H424.167V428.832H425.967ZM426.759 450.72L428.449 450.1L428.449 450.1L426.759 450.72ZM429.495 453.96L428.621 455.533L428.621 455.533L429.495 453.96ZM439.359 454.608L439.736 456.368L439.736 456.368L439.359 454.608ZM443.247 453.456L444.971 452.939L444.413 451.079L442.601 451.776L443.247 453.456ZM444.543 457.776L445.158 459.468L446.756 458.887L446.267 457.259L444.543 457.776ZM439.503 459.216L439.123 457.457L439.095 457.463L439.067 457.47L439.503 459.216ZM433.599 458.064C430.374 458.064 428.054 457.492 426.472 456.527L424.598 459.601C426.953 461.036 430.009 461.664 433.599 461.664V458.064ZM426.499 456.544C424.85 455.498 423.682 454.092 422.959 452.283L419.616 453.621C420.621 456.132 422.285 458.134 424.571 459.584L426.499 456.544ZM422.971 452.316C422.248 450.402 421.863 448.106 421.863 445.392H418.263C418.263 448.438 418.694 451.182 419.603 453.588L422.971 452.316ZM421.863 445.392V428.832H418.263V445.392H421.863ZM420.063 427.032H410.199V430.632H420.063V427.032ZM411.999 428.832V424.368H408.399V428.832H411.999ZM410.264 426.167L420.344 425.807L420.215 422.209L410.135 422.569L410.264 426.167ZM422.075 424.135L422.867 412.903L419.276 412.649L418.484 423.881L422.075 424.135ZM421.071 414.576H425.967V410.976H421.071V414.576ZM424.167 412.776V424.008H427.767V412.776H424.167ZM425.967 425.808H443.175V422.208H425.967V425.808ZM441.375 424.008V428.832H444.975V424.008H441.375ZM443.175 427.032H425.967V430.632H443.175V427.032ZM424.167 428.832V445.464H427.767V428.832H424.167ZM424.167 445.464C424.167 447.671 424.448 449.646 425.069 451.34L428.449 450.1C428.014 448.914 427.767 447.385 427.767 445.464H424.167ZM425.069 451.34C425.74 453.17 426.934 454.596 428.621 455.533L430.369 452.387C429.465 451.884 428.834 451.15 428.449 450.1L425.069 451.34ZM428.621 455.533C430.289 456.46 432.408 456.84 434.823 456.84V453.24C432.727 453.24 431.294 452.9 430.369 452.387L428.621 455.533ZM434.823 456.84C436.603 456.84 438.245 456.688 439.736 456.368L438.982 452.848C437.786 453.104 436.403 453.24 434.823 453.24V456.84ZM439.736 456.368C441.169 456.061 442.556 455.651 443.893 455.136L442.601 451.776C441.443 452.221 440.237 452.579 438.982 452.848L439.736 456.368ZM441.523 453.973L442.819 458.293L446.267 457.259L444.971 452.939L441.523 453.973ZM443.928 456.084C442.426 456.63 440.825 457.089 439.123 457.457L439.884 460.975C441.733 460.575 443.492 460.074 445.158 459.468L443.928 456.084ZM439.067 457.47C437.511 457.859 435.694 458.064 433.599 458.064V461.664C435.921 461.664 438.04 461.437 439.94 460.962L439.067 457.47ZM462.587 473.832L462.274 475.605L462.283 475.606L462.291 475.608L462.587 473.832ZM460.427 473.328L458.686 472.873L458.249 474.541L459.898 475.048L460.427 473.328ZM461.651 468.648L462.168 466.924L460.382 466.388L459.91 468.193L461.651 468.648ZM463.163 469.008L462.841 470.779L462.854 470.781L462.867 470.784L463.163 469.008ZM470.795 466.992L469.586 465.658L469.575 465.668L469.564 465.679L470.795 466.992ZM474.395 461.664L472.734 460.972L472.729 460.984L472.724 460.995L474.395 461.664ZM475.475 459.072L477.137 459.764L477.442 459.031L477.107 458.312L475.475 459.072ZM459.131 424.008V422.208H456.306L457.5 424.768L459.131 424.008ZM465.107 424.008L466.753 423.28L466.279 422.208H465.107V424.008ZM473.675 443.376L475.324 442.655L475.321 442.648L473.675 443.376ZM475.763 448.344L474.095 449.02L474.106 449.048L474.118 449.075L475.763 448.344ZM477.995 453.528L476.334 454.22L476.795 455.328H477.995V453.528ZM478.283 453.528V455.328H479.535L479.97 454.155L478.283 453.528ZM480.155 448.416L478.472 447.779L478.467 447.792L478.462 447.805L480.155 448.416ZM482.027 443.376L480.352 442.716L480.344 442.738L480.335 442.761L482.027 443.376ZM489.659 424.008V422.208H488.434L487.984 423.348L489.659 424.008ZM495.275 424.008L496.942 424.686L497.951 422.208H495.275V424.008ZM479.867 461.88L478.2 461.202L478.19 461.225L478.182 461.248L479.867 461.88ZM476.627 468.072L475.16 467.029L475.153 467.038L475.147 467.047L476.627 468.072ZM471.803 472.464L470.936 470.887L470.927 470.891L470.919 470.896L471.803 472.464ZM465.035 472.248C464.379 472.248 463.663 472.186 462.883 472.056L462.291 475.608C463.24 475.766 464.155 475.848 465.035 475.848V472.248ZM462.9 472.059C462.139 471.925 461.494 471.773 460.956 471.608L459.898 475.048C460.609 475.267 461.404 475.451 462.274 475.605L462.9 472.059ZM462.169 473.783L463.393 469.103L459.91 468.193L458.686 472.873L462.169 473.783ZM461.134 470.372C461.682 470.537 462.252 470.672 462.841 470.779L463.485 467.237C463.018 467.152 462.58 467.047 462.168 466.924L461.134 470.372ZM462.867 470.784C463.531 470.894 464.182 470.952 464.819 470.952V467.352C464.4 467.352 463.947 467.314 463.459 467.232L462.867 470.784ZM464.819 470.952C467.645 470.952 470.103 470.108 472.026 468.305L469.564 465.679C468.416 466.756 466.889 467.352 464.819 467.352V470.952ZM472.004 468.326C473.766 466.729 475.113 464.715 476.066 462.333L472.724 460.995C471.949 462.933 470.896 464.471 469.586 465.658L472.004 468.326ZM476.057 462.356L477.137 459.764L473.814 458.38L472.734 460.972L476.057 462.356ZM477.107 458.312L460.763 423.248L457.5 424.768L473.844 459.832L477.107 458.312ZM459.131 425.808H465.107V422.208H459.131V425.808ZM463.461 424.736L472.029 444.104L475.321 442.648L466.753 423.28L463.461 424.736ZM472.026 444.097C472.691 445.617 473.38 447.257 474.095 449.02L477.431 447.668C476.706 445.879 476.004 444.207 475.324 442.655L472.026 444.097ZM474.118 449.075C474.881 450.79 475.619 452.505 476.334 454.22L479.657 452.836C478.931 451.095 478.182 449.354 477.408 447.613L474.118 449.075ZM477.995 455.328H478.283V451.728H477.995V455.328ZM479.97 454.155C480.596 452.469 481.222 450.76 481.848 449.027L478.462 447.805C477.84 449.528 477.218 451.227 476.596 452.901L479.97 454.155ZM481.839 449.053C482.513 447.271 483.14 445.583 483.719 443.991L480.335 442.761C479.762 444.337 479.141 446.009 478.472 447.779L481.839 449.053ZM483.702 444.036L491.334 424.668L487.984 423.348L480.352 442.716L483.702 444.036ZM489.659 425.808H495.275V422.208H489.659V425.808ZM493.608 423.33L478.2 461.202L481.534 462.558L496.942 424.686L493.608 423.33ZM478.182 461.248C477.367 463.421 476.357 465.344 475.16 467.029L478.094 469.115C479.489 467.152 480.639 464.947 481.553 462.512L478.182 461.248ZM475.147 467.047C474.003 468.7 472.602 469.97 470.936 470.887L472.671 474.041C474.844 472.846 476.659 471.188 478.107 469.097L475.147 467.047ZM470.919 470.896C469.372 471.769 467.435 472.248 465.035 472.248V475.848C467.915 475.848 470.49 475.271 472.687 474.032L470.919 470.896Z" fill="black"/>
</svg>
